CheltenhamClassicBold.glyphspackage
{
glyphname = exclam;
layers = (
{
hints = (
{
horizontal = 1;
place = (-10,159);
type = Stem;
},
{
place = (61,102);
type = Stem;
}
);
layerId = "C6EC6FDA-E503-47EF-96B2-9587BA9C0735";
shapes = (
{
closed = 1;
nodes = (
(212,692,o),
(194,741,o),
(136,741,cs),
(76,741,o),
(58,692,o),
(58,640,cs),
(58,584,o),
(84,506,o),
(95,413,cs),
(104,338,o),
(108,318,o),
(110,222,c),
(110,216,o),
(121,212,o),
(135,212,cs),
(150,212,o),
(160,216,o),
(160,222,c),
(164,320,o),
(166,338,o),
(175,413,cs),
(186,506,o),
(212,584,o),
(212,640,cs)
);
},
{
closed = 1;
nodes = (
(214,113,o),
(178,149,o),
(135,149,cs),
(91,149,o),
(55,113,o),
(55,70,cs),
(55,26,o),
(91,-10,o),
(135,-10,cs),
(178,-10,o),
(214,26,o),
(214,70,cs)
);
}
);
width = 270;
}
);
unicode = 33;
}
{
glyphname = quotedbl;
layers = (
{
hints = (
{
place = (53,128);
type = Stem;
},
{
place = (240,128);
type = Stem;
}
);
layerId = "C6EC6FDA-E503-47EF-96B2-9587BA9C0735";
shapes = (
{
closed = 1;
nodes = (
(365,717,o),
(334,740,o),
(300,740,cs),
(266,740,o),
(233,717,o),
(233,665,cs),
(233,631,o),
(260,524,o),
(276,414,cs),
(277,408,o),
(285,401,o),
(299,401,cs),
(314,401,o),
(321,408,o),
(322,414,cs),
(338,524,o),
(365,630,o),
(365,665,cs)
);
},
{
closed = 1;
nodes = (
(182,717,o),
(151,740,o),
(117,740,cs),
(83,740,o),
(50,717,o),
(50,665,cs),
(50,631,o),
(77,524,o),
(93,414,cs),
(94,408,o),
(102,401,o),
(116,401,cs),
(131,401,o),
(138,408,o),
(139,414,cs),
(155,524,o),
(182,630,o),
(182,665,cs)
);
}
);
width = 415;
}
);
unicode = 34;
}
{
glyphname = numbersign;
layers = (
{
hints = (
{
horizontal = 1;
place = (-9,20);
type = Stem;
},
{
horizontal = 1;
place = (178,102);
type = Stem;
},
{
horizontal = 1;
place = (408,102);
type = Stem;
}
);
layerId = "C6EC6FDA-E503-47EF-96B2-9587BA9C0735";
shapes = (
{
closed = 1;
nodes = (
(515,510,l),
(544,685,l),
(485,685,l),
(456,510,l),
(337,510,l),
(366,685,l),
(307,685,l),
(278,510,l),
(128,510,l),
(111,409,l),
(261,409,l),
(240,279,l),
(94,279,l),
(77,178,l),
(223,178,l),
(192,-9,l),
(251,-9,l),
(282,178,l),
(401,178,l),
(370,-9,l),
(429,-9,l),
(460,178,l),
(612,178,l),
(629,279,l),
(477,279,l),
(498,409,l),
(646,409,l),
(663,510,l)
);
},
{
closed = 1;
nodes = (
(418,279,l),
(299,279,l),
(320,409,l),
(439,409,l)
);
}
);
width = 740;
}
);
unicode = 35;
}
{
glyphname = dollar;
layers = (
{
hints = (
{
horizontal = 1;
place = (-9,71);
type = Stem;
},
{
horizontal = 1;
place = (616,71);
type = Stem;
},
{
place = (20,140);
type = Stem;
},
{
place = (243,50);
type = Stem;
},
{
place = (337,128);
type = Stem;
}
);
layerId = "C6EC6FDA-E503-47EF-96B2-9587BA9C0735";
shapes = (
{
closed = 1;
nodes = (
(486,275,o),
(448,327,o),
(381,368,cs),
(356,383,o),
(320,403,o),
(290,418,c),
(290,617,l),
(320,615,o),
(343,608,o),
(368,591,c),
(347,576,o),
(338,564,o),
(338,539,cs),
(338,502,o),
(368,481,o),
(399,481,cs),
(430,481,o),
(462,502,o),
(462,551,cs),
(462,608,o),
(411,678,o),
(290,687,c),
(290,740,l),
(240,740,l),
(240,687,l),
(124,679,o),
(48,603,o),
(48,504,cs),
(48,434,o),
(84,375,o),
(145,337,cs),
(171,321,o),
(207,303,o),
(240,288,c),
(240,61,l),
(184,62,o),
(151,80,o),
(122,99,c),
(148,121,o),
(158,144,o),
(158,167,cs),
(158,201,o),
(137,233,o),
(92,233,cs),
(55,233,o),
(17,207,o),
(17,153,cs),
(17,77,o),
(82,-5,o),
(240,-9,c),
(240,-136,l),
(290,-136,l),
(290,-6,l),
(413,8,o),
(486,97,o),
(486,198,cs)
);
},
{
closed = 1;
nodes = (
(240,438,l),
(176,466,o),
(157,502,o),
(157,539,cs),
(157,572,o),
(183,609,o),
(240,617,c)
);
},
{
closed = 1;
nodes = (
(378,112,o),
(341,78,o),
(290,66,c),
(290,268,l),
(360,233,o),
(378,205,o),
(378,163,cs)
);
}
);
width = 509;
}
);
unicode = 36;
}
{
glyphname = percent;
layers = (
{
hints = (
{
horizontal = 1;
place = (-5,56);
type = Stem;
},
{
horizontal = 1;
place = (329,56);
type = Stem;
},
{
horizontal = 1;
place = (671,56);
type = Stem;
},
{
place = (30,102);
type = Stem;
},
{
place = (259,102);
type = Stem;
},
{
place = (419,102);
type = Stem;
},
{
place = (648,102);
type = Stem;
}
);
layerId = "C6EC6FDA-E503-47EF-96B2-9587BA9C0735";
shapes = (
{
closed = 1;
nodes = (
(747,313,o),
(673,393,o),
(582,393,cs),
(491,393,o),
(417,313,o),
(417,194,cs),
(417,75,o),
(492,-5,o),
(582,-5,cs),
(672,-5,o),
(747,75,o),
(747,194,cs)
);
},
{
closed = 1;
nodes = (
(554,733,l),
(158,-10,l),
(220,-10,l),
(616,733,l)
);
},
{
closed = 1;
nodes = (
(357,647,o),
(283,727,o),
(192,727,cs),
(101,727,o),
(27,647,o),
(27,528,cs),
(27,409,o),
(102,329,o),
(192,329,cs),
(282,329,o),
(357,409,o),
(357,528,cs)
);
},
{
closed = 1;
nodes = (
(646,88,o),
(621,49,o),
(582,49,cs),
(542,49,o),
(518,89,o),
(518,194,cs),
(518,299,o),
(542,339,o),
(582,339,cs),
(622,339,o),
(646,299,o),
(646,194,cs)
);
},
{
closed = 1;
nodes = (
(256,422,o),
(231,383,o),
(192,383,cs),
(152,383,o),
(128,423,o),
(128,528,cs),
(128,633,o),
(152,673,o),
(192,673,cs),
(232,673,o),
(256,633,o),
(256,528,cs)
);
}
);
width = 756;
}
);
unicode = 37;
}
{
glyphname = ampersand;
layers = (
{
hints = (
{
horizontal = 1;
place = (-9,80);
type = Stem;
},
{
horizontal = 1;
place = (669,71);
type = Stem;
},
{
place = (25,140);
type = Stem;
},
{
place = (194,128);
type = Stem;
},
{
place = (446,109);
type = Stem;
}
);
layerId = "C6EC6FDA-E503-47EF-96B2-9587BA9C0735";
shapes = (
{
closed = 1;
nodes = (
(749,99,l),
(724,86,o),
(696,76,o),
(668,76,cs),
(625,76,o),
(583,102,o),
(543,145,c),
(588,196,o),
(616,245,o),
(628,264,cs),
(654,305,o),
(660,312,o),
(708,338,cs),
(745,359,o),
(749,360,o),
(749,376,cs),
(749,386,o),
(749,405,o),
(749,405,c),
(492,405,l),
(492,405,o),
(492,382,o),
(492,372,cs),
(492,359,o),
(498,352,o),
(524,338,cs),
(550,324,o),
(556,316,o),
(556,300,cs),
(556,278,o),
(533,237,o),
(500,198,c),
(475,233,o),
(450,275,o),
(428,318,cs),
(407,358,o),
(392,392,o),
(378,421,c),
(522,487,o),
(552,533,o),
(552,595,cs),
(552,662,o),
(504,740,o),
(388,740,cs),
(265,740,o),
(191,661,o),
(191,570,cs),
(191,528,o),
(201,484,o),
(220,431,c),
(103,376,o),
(22,304,o),
(22,198,cs),
(22,81,o),
(106,-9,o),
(262,-9,cs),
(333,-9,o),
(397,19,o),
(451,59,c),
(499,17,o),
(554,-9,o),
(615,-9,cs),
(698,-9,o),
(745,11,o),
(784,42,c)
);
},
{
closed = 1;
nodes = (
(444,564,o),
(429,530,o),
(348,487,c),
(326,538,o),
(318,570,o),
(318,597,cs),
(318,640,o),
(345,668,o),
(382,668,cs),
(415,668,o),
(444,643,o),
(444,597,cs)
);
},
{
closed = 1;
nodes = (
(368,98,o),
(336,88,o),
(306,88,cs),
(212,88,o),
(161,159,o),
(161,240,cs),
(161,291,o),
(188,325,o),
(251,362,c),
(266,328,o),
(284,292,o),
(305,252,cs),
(332,202,o),
(363,155,o),
(397,113,c)
);
}
);
width = 783;
}
);
unicode = 38;
}
{
glyphname = quotesingle;
layers = (
{
hints = (
{
place = (53,128);
type = Stem;
}
);
layerId = "C6EC6FDA-E503-47EF-96B2-9587BA9C0735";
shapes = (
{
closed = 1;
nodes = (
(182,717,o),
(151,740,o),
(117,740,cs),
(83,740,o),
(50,717,o),
(50,665,cs),
(50,631,o),
(77,524,o),
(93,414,cs),
(94,408,o),
(102,401,o),
(116,401,cs),
(131,401,o),
(138,408,o),
(139,414,cs),
(155,524,o),
(182,630,o),
(182,665,cs)
);
}
);
width = 232;
}
);
unicode = 39;
}
{
glyphname = parenleft;
layers = (
{
hints = (
{
place = (46,128);
type = Stem;
}
);
layerId = "C6EC6FDA-E503-47EF-96B2-9587BA9C0735";
shapes = (
{
closed = 1;
nodes = (
(316,-161,l),
(231,-60,o),
(173,92,o),
(173,277,cs),
(173,460,o),
(232,619,o),
(316,714,c),
(286,741,l),
(147,631,o),
(43,467,o),
(43,277,cs),
(43,80,o),
(150,-82,o),
(286,-187,c)
);
}
);
width = 340;
}
);
unicode = 40;
}
{
glyphname = parenright;
layers = (
{
hints = (
{
place = (172,128);
type = Stem;
}
);
layerId = "C6EC6FDA-E503-47EF-96B2-9587BA9C0735";
shapes = (
{
closed = 1;
nodes = (
(297,467,o),
(193,631,o),
(54,741,c),
(24,714,l),
(108,619,o),
(167,460,o),
(167,277,cs),
(167,92,o),
(109,-60,o),
(24,-161,c),
(54,-187,l),
(190,-82,o),
(297,80,o),
(297,277,cs)
);
}
);
width = 340;
}
);
unicode = 41;
}
{
glyphname = asterisk;
layers = (
{
hints = (
{
horizontal = 1;
place = (393,102);
type = Stem;
},
{
horizontal = 1;
place = (549,102);
type = Stem;
},
{
place = (223,71);
type = Stem;
}
);
layerId = "C6EC6FDA-E503-47EF-96B2-9587BA9C0735";
shapes = (
{
closed = 1;
nodes = (
(466,470,o),
(438,493,o),
(411,495,cs),
(364,498,o),
(337,499,o),
(305,522,c),
(337,545,o),
(363,546,o),
(411,549,cs),
(439,551,o),
(466,576,o),
(466,607,cs),
(466,625,o),
(454,651,o),
(416,651,cs),
(389,651,o),
(372,638,o),
(360,622,cs),
(327,575,o),
(325,572,o),
(291,551,c),
(291,574,o),
(291,597,o),
(302,620,cs),
(321,662,o),
(323,667,o),
(323,684,cs),
(323,715,o),
(300,740,o),
(275,740,cs),
(248,740,o),
(224,716,o),
(224,687,cs),
(224,668,o),
(228,659,o),
(247,618,cs),
(259,594,o),
(259,563,o),
(259,551,c),
(238,556,o),
(225,561,o),
(203,593,cs),
(180,626,o),
(163,651,o),
(128,651,cs),
(101,651,o),
(78,632,o),
(78,604,cs),
(78,581,o),
(95,554,o),
(134,548,cs),
(193,540,o),
(199,539,o),
(243,522,c),
(199,504,o),
(193,505,o),
(135,496,cs),
(91,490,o),
(78,458,o),
(78,440,cs),
(78,412,o),
(101,393,o),
(128,393,cs),
(163,393,o),
(180,419,o),
(203,451,cs),
(225,483,o),
(238,488,o),
(259,493,c),
(259,478,o),
(259,451,o),
(247,426,cs),
(230,389,o),
(224,376,o),
(224,358,cs),
(224,325,o),
(251,304,o),
(274,304,cs),
(302,304,o),
(323,332,o),
(323,359,cs),
(323,377,o),
(321,382,o),
(302,424,cs),
(291,447,o),
(291,470,o),
(291,493,c),
(325,472,o),
(327,468,o),
(360,422,cs),
(380,394,o),
(406,393,o),
(416,393,cs),
(455,393,o),
(466,420,o),
(466,437,cs)
);
}
);
width = 544;
}
);
unicode = 42;
}
{
glyphname = plus;
layers = (
{
hints = (
{
horizontal = 1;
place = (250,80);
type = Stem;
},
{
place = (328,84);
type = Stem;
}
);
layerId = "C6EC6FDA-E503-47EF-96B2-9587BA9C0735";
shapes = (
{
closed = 1;
nodes = (
(638,335,l),
(413,335,l),
(413,560,l),
(328,560,l),
(328,335,l),
(103,335,l),
(103,250,l),
(328,250,l),
(328,25,l),
(413,25,l),
(413,250,l),
(638,250,l)
);
}
);
width = 740;
}
);
unicode = 43;
}
{
glyphname = comma;
layers = (
{
hints = (
{
place = (60,154);
type = Stem;
}
);
layerId = "C6EC6FDA-E503-47EF-96B2-9587BA9C0735";
shapes = (
{
closed = 1;
nodes = (
(211,113,o),
(179,149,o),
(131,149,cs),
(93,149,o),
(55,116,o),
(55,70,cs),
(55,15,o),
(102,0,o),
(124,-7,c),
(120,-29,o),
(101,-78,o),
(43,-126,c),
(68,-160,l),
(144,-115,o),
(211,-43,o),
(211,53,cs)
);
}
);
width = 264;
}
);
unicode = 44;
}
{
glyphname = hyphen;
layers = (
{
hints = (
{
horizontal = 1;
place = (160,119);
type = Stem;
},
{
place = (40,211);
type = Stem;
}
);
layerId = "C6EC6FDA-E503-47EF-96B2-9587BA9C0735";
shapes = (
{
closed = 1;
nodes = (
(247,276,l),
(37,276,l),
(37,160,l),
(247,160,l)
);
}
);
width = 284;
}
);
unicode = 45;
}
{
glyphname = period;
layers = (
{
hints = (
{
horizontal = 1;
place = (-10,159);
type = Stem;
},
{
place = (56,154);
type = Stem;
}
);
layerId = "C6EC6FDA-E503-47EF-96B2-9587BA9C0735";
shapes = (
{
closed = 1;
nodes = (
(212,113,o),
(176,149,o),
(133,149,cs),
(89,149,o),
(53,113,o),
(53,70,cs),
(53,26,o),
(89,-10,o),
(133,-10,cs),
(176,-10,o),
(212,26,o),
(212,70,cs)
);
}
);
width = 264;
}
);
unicode = 46;
}
{
glyphname = slash;
layers = (
{
hints = (
{
horizontal = 1;
place = (730,-20);
target = down;
type = TopGhost;
}
);
layerId = "C6EC6FDA-E503-47EF-96B2-9587BA9C0735";
shapes = (
{
closed = 1;
nodes = (
(312,730,l),
(-44,-190,l),
(44,-190,l),
(401,730,l)
);
}
);
width = 412;
}
);
unicode = 47;
}
{
glyphname = zero;
layers = (
{
hints = (
{
horizontal = 1;
place = (-10,80);
type = Stem;
},
{
horizontal = 1;
place = (614,80);
type = Stem;
},
{
place = (26,140);
type = Stem;
},
{
place = (377,140);
type = Stem;
}
);
layerId = "C6EC6FDA-E503-47EF-96B2-9587BA9C0735";
shapes = (
{
closed = 1;
nodes = (
(514,551,o),
(409,694,o),
(268,694,cs),
(128,694,o),
(23,551,o),
(23,342,cs),
(23,133,o),
(128,-10,o),
(268,-10,cs),
(409,-10,o),
(514,133,o),
(514,342,cs)
);
},
{
closed = 1;
nodes = (
(371,144,o),
(334,68,o),
(268,68,cs),
(202,68,o),
(166,144,o),
(166,342,cs),
(166,540,o),
(202,616,o),
(268,616,cs),
(334,616,o),
(371,540,o),
(371,342,cs)
);
}
);
width = 537;
}
);
unicode = 48;
}
{
glyphname = one;
layers = (
{
hints = (
{
horizontal = 1;
place = (0,20);
type = Stem;
},
{
place = (135,128);
type = Stem;
}
);
layerId = "C6EC6FDA-E503-47EF-96B2-9587BA9C0735";
shapes = (
{
closed = 1;
nodes = (
(340,0,l),
(340,0,o),
(340,22,o),
(340,32,cs),
(340,44,o),
(338,53,o),
(313,63,cs),
(272,80,o),
(260,84,o),
(260,113,cs),
(260,206,o),
(260,632,o),
(260,687,c),
(167,687,l),
(38,638,ls),
(20,631,o),
(15,622,o),
(15,611,cs),
(15,603,o),
(15,583,o),
(15,575,c),
(127,575,l),
(127,575,o),
(127,206,o),
(127,113,cs),
(127,84,o),
(114,80,o),
(73,63,cs),
(48,53,o),
(46,44,o),
(46,32,cs),
(46,22,o),
(46,0,o),
(46,0,c)
);
}
);
width = 353;
}
);
unicode = 49;
}
{
glyphname = two;
layers = (
{
hints = (
{
horizontal = 1;
place = (0,127);
type = Stem;
},
{
horizontal = 1;
place = (623,71);
type = Stem;
},
{
place = (21,146);
type = Stem;
},
{
place = (310,140);
type = Stem;
}
);
layerId = "C6EC6FDA-E503-47EF-96B2-9587BA9C0735";
shapes = (
{
closed = 1;
nodes = (
(404,191,l),
(394,154,o),
(378,122,o),
(326,122,cs),
(124,122,l),
(178,180,o),
(219,213,o),
(286,273,cs),
(406,379,o),
(447,430,o),
(447,521,cs),
(447,623,o),
(361,694,o),
(224,694,cs),
(85,694,o),
(18,611,o),
(18,541,cs),
(18,498,o),
(45,462,o),
(95,462,cs),
(141,462,o),
(165,497,o),
(165,532,cs),
(165,557,o),
(154,581,o),
(132,597,c),
(154,614,o),
(183,623,o),
(207,623,cs),
(265,623,o),
(303,585,o),
(303,517,cs),
(303,459,o),
(292,409,o),
(187,299,cs),
(82,189,o),
(47,145,o),
(7,94,c),
(7,0,l),
(441,0,l),
(448,191,l)
);
}
);
width = 473;
}
);
unicode = 50;
}
{
glyphname = three;
layers = (
{
hints = (
{
horizontal = 1;
place = (-10,71);
type = Stem;
},
{
horizontal = 1;
place = (340,71);
type = Stem;
},
{
horizontal = 1;
place = (623,71);
type = Stem;
},
{
place = (161,122);
type = Stem;
},
{
place = (312,128);
type = Stem;
}
);
layerId = "C6EC6FDA-E503-47EF-96B2-9587BA9C0735";
shapes = (
{
closed = 1;
nodes = (
(463,281,o),
(410,364,o),
(280,379,c),
(280,383,l),
(378,399,o),
(437,472,o),
(437,542,cs),
(437,635,o),
(357,694,o),
(214,694,cs),
(97,694,o),
(23,638,o),
(23,576,cs),
(23,532,o),
(57,507,o),
(91,507,cs),
(125,507,o),
(158,532,o),
(158,570,cs),
(158,580,o),
(156,589,o),
(152,601,c),
(167,613,o),
(188,623,o),
(207,623,cs),
(259,623,o),
(304,595,o),
(304,528,cs),
(304,464,o),
(255,417,o),
(172,411,cs),
(165,410,o),
(159,409,o),
(159,403,cs),
(159,346,ls),
(159,339,o),
(165,339,o),
(172,339,c),
(279,337,o),
(320,275,o),
(320,199,cs),
(320,117,o),
(273,61,o),
(195,61,cs),
(171,61,o),
(148,69,o),
(130,84,c),
(142,102,o),
(145,117,o),
(145,132,cs),
(145,171,o),
(114,202,o),
(73,202,cs),
(34,202,o),
(-3,173,o),
(-3,120,cs),
(-3,45,o),
(91,-10,o),
(201,-10,cs),
(365,-10,o),
(463,87,o),
(463,192,cs)
);
}
);
width = 479;
}
);
unicode = 51;
}
{
glyphname = four;
layers = (
{
hints = (
{
horizontal = 1;
place = (0,20);
type = Stem;
},
{
horizontal = 1;
place = (177,80);
type = Stem;
},
{
place = (289,128);
type = Stem;
}
);
layerId = "C6EC6FDA-E503-47EF-96B2-9587BA9C0735";
shapes = (
{
closed = 1;
nodes = (
(518,257,l),
(417,257,l),
(417,688,l),
(318,688,l),
(8,255,l),
(8,177,l),
(286,177,l),
(286,177,o),
(286,128,o),
(286,117,cs),
(286,88,o),
(279,83,o),
(255,66,cs),
(234,51,o),
(231,47,o),
(231,35,cs),
(231,25,o),
(231,0,o),
(231,0,c),
(471,0,l),
(471,0,o),
(471,25,o),
(471,35,cs),
(471,47,o),
(466,53,o),
(447,66,cs),
(424,82,o),
(417,88,o),
(417,117,cs),
(417,127,o),
(417,168,o),
(417,177,c),
(518,177,l)
);
},
{
closed = 1;
nodes = (
(101,257,l),
(286,514,l),
(286,257,l)
);
}
);
width = 533;
}
);
unicode = 52;
}
{
glyphname = five;
layers = (
{
hints = (
{
horizontal = 1;
place = (-10,71);
type = Stem;
},
{
horizontal = 1;
place = (344,88);
type = Stem;
},
{
horizontal = 1;
place = (563,119);
type = Stem;
},
{
horizontal = 1;
place = (727,-20);
target = down;
type = TopGhost;
},
{
place = (12,116);
type = Stem;
},
{
place = (323,102);
type = Stem;
}
);
layerId = "C6EC6FDA-E503-47EF-96B2-9587BA9C0735";
shapes = (
{
closed = 1;
nodes = (
(467,346,o),
(381,432,o),
(262,432,cs),
(210,432,o),
(163,418,o),
(121,384,c),
(130,562,l),
(418,562,l),
(426,727,l),
(388,727,ls),
(386,727,o),
(384,724,o),
(384,723,c),
(377,689,o),
(368,682,o),
(332,682,cs),
(62,682,l),
(44,330,l),
(97,302,l),
(118,319,o),
(156,344,o),
(204,344,cs),
(288,344,o),
(325,285,o),
(325,214,cs),
(325,138,o),
(289,61,o),
(203,61,cs),
(177,61,o),
(157,69,o),
(134,86,c),
(148,103,o),
(154,121,o),
(154,139,cs),
(154,173,o),
(130,210,o),
(81,210,cs),
(39,210,o),
(6,174,o),
(6,134,cs),
(6,51,o),
(90,-10,o),
(211,-10,cs),
(348,-10,o),
(467,77,o),
(467,220,cs)
);
}
);
width = 483;
}
);
unicode = 53;
}
{
glyphname = six;
layers = (
{
hints = (
{
horizontal = 1;
place = (-10,80);
type = Stem;
},
{
horizontal = 1;
place = (338,88);
type = Stem;
},
{
horizontal = 1;
place = (623,71);
type = Stem;
},
{
place = (27,140);
type = Stem;
},
{
place = (358,140);
type = Stem;
}
);
layerId = "C6EC6FDA-E503-47EF-96B2-9587BA9C0735";
shapes = (
{
closed = 1;
nodes = (
(495,337,o),
(424,426,o),
(312,426,cs),
(241,426,o),
(195,388,o),
(164,351,c),
(164,584,o),
(248,623,o),
(309,623,cs),
(320,623,o),
(326,623,o),
(340,617,c),
(332,598,o),
(328,589,o),
(328,573,cs),
(328,535,o),
(358,503,o),
(400,503,cs),
(444,503,o),
(474,534,o),
(474,581,cs),
(474,637,o),
(426,694,o),
(322,694,cs),
(175,694,o),
(24,570,o),
(24,318,cs),
(24,138,o),
(110,-10,o),
(272,-10,cs),
(404,-10,o),
(495,98,o),
(495,226,cs)
);
},
{
closed = 1;
nodes = (
(355,108,o),
(316,68,o),
(264,68,cs),
(199,68,o),
(165,130,o),
(165,244,cs),
(165,256,o),
(165,270,o),
(165,281,c),
(188,307,o),
(224,337,o),
(267,337,cs),
(317,337,o),
(355,300,o),
(355,214,cs)
);
}
);
width = 513;
}
);
unicode = 54;
}
{
glyphname = seven;
layers = (
{
hints = (
{
horizontal = 1;
place = (-10,20);
type = Stem;
},
{
horizontal = 1;
place = (560,127);
type = Stem;
},
{
place = (115,162);
type = Stem;
}
);
layerId = "C6EC6FDA-E503-47EF-96B2-9587BA9C0735";
shapes = (
{
closed = 1;
nodes = (
(454,682,l),
(184,682,ls),
(132,682,o),
(76,684,o),
(23,687,c),
(14,498,l),
(54,494,l),
(76,548,o),
(97,560,o),
(152,560,cs),
(209,560,o),
(276,560,o),
(364,560,c),
(250,402,o),
(112,182,o),
(112,74,cs),
(112,20,o),
(148,-10,o),
(192,-10,cs),
(236,-10,o),
(272,25,o),
(272,87,cs),
(272,257,o),
(333,412,o),
(454,608,c)
);
}
);
width = 458;
}
);
unicode = 55;
}
{
glyphname = eight;
layers = (
{
hints = (
{
horizontal = 1;
place = (-11,80);
type = Stem;
},
{
horizontal = 1;
place = (615,80);
type = Stem;
},
{
place = (17,116);
type = Stem;
},
{
place = (383,128);
type = Stem;
}
);
layerId = "C6EC6FDA-E503-47EF-96B2-9587BA9C0735";
shapes = (
{
closed = 1;
nodes = (
(508,290,o),
(452,350,o),
(342,393,c),
(433,429,o),
(470,482,o),
(470,543,cs),
(470,638,o),
(386,695,o),
(267,695,cs),
(141,695,o),
(50,603,o),
(50,505,cs),
(50,445,o),
(70,391,o),
(151,334,c),
(78,305,o),
(14,246,o),
(14,164,cs),
(14,77,o),
(88,-11,o),
(253,-11,cs),
(397,-11,o),
(508,82,o),
(508,198,cs)
);
},
{
closed = 1;
nodes = (
(360,490,o),
(344,446,o),
(295,417,c),
(200,455,o),
(162,490,o),
(162,535,cs),
(162,583,o),
(207,616,o),
(264,616,cs),
(317,616,o),
(360,580,o),
(360,528,cs)
);
},
{
closed = 1;
nodes = (
(383,111,o),
(338,67,o),
(260,67,cs),
(183,67,o),
(129,112,o),
(129,179,cs),
(129,225,o),
(155,280,o),
(200,305,c),
(228,292,o),
(267,275,o),
(304,259,cs),
(362,234,o),
(383,199,o),
(383,163,cs)
);
}
);
width = 522;
}
);
unicode = 56;
}
{
glyphname = nine;
layers = (
{
hints = (
{
horizontal = 1;
place = (-10,71);
type = Stem;
},
{
horizontal = 1;
place = (257,88);
type = Stem;
},
{
horizontal = 1;
place = (614,80);
type = Stem;
},
{
place = (21,140);
type = Stem;
},
{
place = (352,140);
type = Stem;
}
);
layerId = "C6EC6FDA-E503-47EF-96B2-9587BA9C0735";
shapes = (
{
closed = 1;
nodes = (
(489,546,o),
(407,694,o),
(246,694,cs),
(112,694,o),
(18,586,o),
(18,458,cs),
(18,347,o),
(87,257,o),
(201,257,cs),
(272,257,o),
(318,296,o),
(349,333,c),
(349,103,o),
(264,61,o),
(202,61,cs),
(197,61,o),
(183,62,o),
(173,68,c),
(181,86,o),
(183,97,o),
(183,110,cs),
(183,148,o),
(153,181,o),
(111,181,cs),
(67,181,o),
(37,150,o),
(37,103,cs),
(37,48,o),
(84,-10,o),
(191,-10,cs),
(339,-10,o),
(489,113,o),
(489,365,cs)
);
},
{
closed = 1;
nodes = (
(325,376,o),
(289,347,o),
(246,347,cs),
(196,347,o),
(158,384,o),
(158,469,cs),
(158,576,o),
(197,616,o),
(249,616,cs),
(313,616,o),
(348,556,o),
(348,443,cs),
(348,430,o),
(348,415,o),
(348,403,c)
);
}
);
width = 513;
}
);
unicode = 57;
}
{
glyphname = colon;
layers = (
{
hints = (
{
horizontal = 1;
place = (-10,159);
type = Stem;
},
{
horizontal = 1;
place = (274,159);
type = Stem;
},
{
place = (68,154);
type = Stem;
}
);
layerId = "C6EC6FDA-E503-47EF-96B2-9587BA9C0735";
shapes = (
{
closed = 1;
nodes = (
(224,397,o),
(188,433,o),
(145,433,cs),
(101,433,o),
(65,397,o),
(65,354,cs),
(65,310,o),
(101,274,o),
(145,274,cs),
(188,274,o),
(224,310,o),
(224,354,cs)
);
},
{
closed = 1;
nodes = (
(224,113,o),
(188,149,o),
(145,149,cs),
(101,149,o),
(65,113,o),
(65,70,cs),
(65,26,o),
(101,-10,o),
(145,-10,cs),
(188,-10,o),
(224,26,o),
(224,70,cs)
);
}
);
width = 288;
}
);
unicode = 58;
}
{
glyphname = semicolon;
layers = (
{
hints = (
{
horizontal = 1;
place = (274,159);
type = Stem;
},
{
place = (73,154);
type = Stem;
}
);
layerId = "C6EC6FDA-E503-47EF-96B2-9587BA9C0735";
shapes = (
{
closed = 1;
nodes = (
(224,397,o),
(188,433,o),
(145,433,cs),
(101,433,o),
(65,397,o),
(65,354,cs),
(65,310,o),
(101,274,o),
(145,274,cs),
(188,274,o),
(224,310,o),
(224,354,cs)
);
},
{
closed = 1;
nodes = (
(224,113,o),
(192,149,o),
(144,149,cs),
(106,149,o),
(68,116,o),
(68,70,cs),
(68,15,o),
(115,0,o),
(137,-7,c),
(133,-29,o),
(114,-78,o),
(56,-126,c),
(81,-160,l),
(157,-115,o),
(224,-43,o),
(224,53,cs)
);
}
);
width = 288;
}
);
unicode = 59;
}
{
glyphname = less;
layers = (
{
layerId = "C6EC6FDA-E503-47EF-96B2-9587BA9C0735";
shapes = (
{
closed = 1;
nodes = (
(633,107,l),
(225,292,l),
(633,477,l),
(633,575,l),
(107,327,l),
(107,257,l),
(633,9,l)
);
}
);
width = 740;
}
);
unicode = 60;
}
{
glyphname = equal;
layers = (
{
hints = (
{
horizontal = 1;
place = (158,80);
type = Stem;
},
{
horizontal = 1;
place = (347,80);
type = Stem;
}
);
layerId = "C6EC6FDA-E503-47EF-96B2-9587BA9C0735";
shapes = (
{
closed = 1;
nodes = (
(628,427,l),
(113,427,l),
(113,342,l),
(628,342,l)
);
},
{
closed = 1;
nodes = (
(628,243,l),
(113,243,l),
(113,158,l),
(628,158,l)
);
}
);
width = 740;
}
);
unicode = 61;
}
{
glyphname = greater;
layers = (
{
layerId = "C6EC6FDA-E503-47EF-96B2-9587BA9C0735";
shapes = (
{
closed = 1;
nodes = (
(633,327,l),
(107,575,l),
(107,477,l),
(515,292,l),
(107,107,l),
(107,9,l),
(633,257,l)
);
}
);
width = 740;
}
);
unicode = 62;
}
{
glyphname = question;
layers = (
{
hints = (
{
horizontal = 1;
place = (-10,159);
type = Stem;
},
{
horizontal = 1;
place = (669,71);
type = Stem;
},
{
place = (33,140);
type = Stem;
},
{
place = (173,50);
type = Stem;
},
{
place = (272,128);
type = Stem;
}
);
layerId = "C6EC6FDA-E503-47EF-96B2-9587BA9C0735";
shapes = (
{
closed = 1;
nodes = (
(397,675,o),
(324,740,o),
(215,740,cs),
(91,740,o),
(33,669,o),
(33,611,cs),
(33,571,o),
(58,537,o),
(104,537,cs),
(138,537,o),
(170,560,o),
(170,608,cs),
(170,623,o),
(163,636,o),
(152,655,c),
(164,663,o),
(180,670,o),
(199,670,cs),
(237,670,o),
(265,647,o),
(265,578,cs),
(265,531,o),
(252,501,o),
(215,430,cs),
(173,348,o),
(169,317,o),
(169,222,cs),
(169,216,o),
(181,213,o),
(195,213,cs),
(210,213,o),
(221,216,o),
(221,222,cs),
(221,313,o),
(246,335,o),
(314,420,cs),
(362,480,o),
(397,521,o),
(397,586,cs)
);
},
{
closed = 1;
nodes = (
(273,113,o),
(237,149,o),
(194,149,cs),
(150,149,o),
(114,113,o),
(114,70,cs),
(114,26,o),
(150,-10,o),
(194,-10,cs),
(237,-10,o),
(273,26,o),
(273,70,cs)
);
}
);
width = 430;
}
);
unicode = 63;
}
{
glyphname = at;
layers = (
{
hints = (
{
horizontal = 1;
place = (-217,56);
type = Stem;
},
{
horizontal = 1;
place = (-6,71);
type = Stem;
},
{
horizontal = 1;
place = (369,56);
type = Stem;
},
{
horizontal = 1;
place = (584,56);
type = Stem;
},
{
place = (56,91);
type = Stem;
},
{
place = (265,116);
type = Stem;
},
{
place = (837,60);
type = Stem;
}
);
layerId = "C6EC6FDA-E503-47EF-96B2-9587BA9C0735";
shapes = (
{
closed = 1;
nodes = (
(894,514,o),
(756,640,o),
(543,640,cs),
(272,640,o),
(53,414,o),
(53,162,cs),
(53,-64,o),
(213,-217,o),
(464,-217,cs),
(573,-217,o),
(681,-184,o),
(781,-116,c),
(760,-70,l),
(670,-128,o),
(577,-158,o),
(466,-158,cs),
(271,-158,o),
(147,-34,o),
(147,154,cs),
(147,385,o),
(319,582,o),
(551,582,cs),
(730,582,o),
(833,469,o),
(833,331,cs),
(833,188,o),
(752,62,o),
(656,62,cs),
(651,62,o),
(639,69,o),
(639,80,cs),
(639,89,o),
(643,109,o),
(648,127,cs),
(720,381,ls),
(723,390,o),
(729,412,o),
(729,416,cs),
(729,422,o),
(729,426,o),
(720,426,cs),
(711,426,o),
(706,421,o),
(703,418,c),
(658,386,o),
(657,383,o),
(644,383,cs),
(632,383,o),
(620,391,o),
(606,401,cs),
(591,413,o),
(568,425,o),
(524,425,cs),
(388,425,o),
(262,296,o),
(262,139,cs),
(262,54,o),
(305,-5,o),
(384,-5,cs),
(443,-5,o),
(489,33,o),
(516,63,c),
(524,39,o),
(540,-6,o),
(597,-6,cs),
(781,-6,o),
(894,155,o),
(894,331,cs)
);
},
{
closed = 1;
nodes = (
(581,308,o),
(577,294,o),
(576,289,cs),
(534,133,l),
(510,107,o),
(482,85,o),
(441,85,cs),
(403,85,o),
(383,117,o),
(383,161,cs),
(383,252,o),
(445,367,o),
(527,367,cs),
(568,367,o),
(581,335,o),
(581,316,cs)
);
}
);
width = 942;
}
);
unicode = 64;
}
{
glyphname = A;
layers = (
{
hints = (
{
horizontal = 1;
place = (0,20);
type = Stem;
},
{
horizontal = 1;
place = (182,80);
type = Stem;
},
{
place = (-6,203);
type = Stem;
},
{
place = (441,259);
type = Stem;
}
);
layerId = "C6EC6FDA-E503-47EF-96B2-9587BA9C0735";
shapes = (
{
closed = 1;
nodes = (
(697,0,l),
(697,0,o),
(697,25,o),
(697,35,cs),
(697,54,o),
(693,57,o),
(675,70,cs),
(650,88,o),
(638,95,o),
(622,131,cs),
(354,734,ls),
(350,742,o),
(345,742,o),
(338,736,cs),
(309,713,o),
(276,685,o),
(249,665,cs),
(242,659,o),
(240,654,o),
(246,644,cs),
(272,599,o),
(272,595,o),
(254,554,cs),
(65,124,ls),
(53,97,o),
(48,92,o),
(12,66,cs),
(-10,51,o),
(-9,49,o),
(-9,37,cs),
(-9,27,o),
(-9,0,o),
(-9,0,c),
(194,0,l),
(194,0,o),
(194,26,o),
(194,36,cs),
(194,54,o),
(192,56,o),
(169,68,cs),
(155,76,o),
(148,84,o),
(148,96,cs),
(148,106,o),
(152,119,o),
(160,137,cs),
(166,151,o),
(179,182,o),
(179,182,c),
(448,182,l),
(448,182,o),
(466,138,o),
(471,127,cs),
(476,115,o),
(480,105,o),
(480,97,cs),
(480,87,o),
(475,78,o),
(460,68,cs),
(439,54,o),
(438,48,o),
(438,35,cs),
(438,25,o),
(438,0,o),
(438,0,c)
);
},
{
closed = 1;
nodes = (
(212,260,l),
(312,489,l),
(413,260,l)
);
}
);
width = 688;
}
);
unicode = 65;
}
{
glyphname = B;
layers = (
{
hints = (
{
horizontal = 1;
place = (0,80);
type = Stem;
},
{
horizontal = 1;
place = (342,80);
type = Stem;
},
{
horizontal = 1;
place = (650,80);
type = Stem;
},
{
place = (88,140);
type = Stem;
},
{
place = (453,154);
type = Stem;
}
);
layerId = "C6EC6FDA-E503-47EF-96B2-9587BA9C0735";
shapes = (
{
closed = 1;
nodes = (
(604,313,o),
(515,375,o),
(398,386,c),
(504,400,o),
(571,472,o),
(571,551,cs),
(571,653,o),
(501,730,o),
(365,730,cs),
(245,730,o),
(35,730,o),
(35,730,c),
(35,730,o),
(35,705,o),
(35,695,cs),
(35,682,o),
(38,678,o),
(58,664,cs),
(81,648,o),
(85,642,o),
(85,613,cs),
(85,518,o),
(85,211,o),
(85,117,cs),
(85,88,o),
(81,83,o),
(58,67,cs),
(37,53,o),
(35,47,o),
(35,35,cs),
(35,25,o),
(35,0,o),
(35,0,c),
(35,0,o),
(285,0,o),
(378,0,cs),
(522,0,o),
(604,95,o),
(604,195,cs)
);
},
{
closed = 1;
nodes = (
(417,467,o),
(373,422,o),
(284,422,cs),
(278,422,o),
(229,422,o),
(224,422,c),
(224,548,o),
(224,609,o),
(224,652,c),
(231,652,o),
(273,652,o),
(284,652,cs),
(379,652,o),
(417,609,o),
(417,537,cs)
);
},
{
closed = 1;
nodes = (
(451,124,o),
(397,79,o),
(281,79,cs),
(264,79,o),
(235,79,o),
(224,79,c),
(224,137,o),
(224,243,o),
(224,344,c),
(229,344,o),
(267,344,o),
(274,344,cs),
(396,344,o),
(451,296,o),
(451,208,cs)
);
}
);
width = 630;
}
);
unicode = 66;
}
{
glyphname = C;
layers = (
{
hints = (
{
horizontal = 1;
place = (-10,80);
type = Stem;
},
{
horizontal = 1;
place = (655,80);
type = Stem;
},
{
place = (23,154);
type = Stem;
}
);
layerId = "C6EC6FDA-E503-47EF-96B2-9587BA9C0735";
shapes = (
{
closed = 1;
nodes = (
(577,190,l),
(559,164,o),
(483,74,o),
(367,75,cs),
(255,76,o),
(175,182,o),
(175,365,cs),
(175,574,o),
(271,655,o),
(363,655,cs),
(436,655,o),
(491,610,o),
(522,526,cs),
(525,518,o),
(528,513,o),
(543,513,cs),
(549,513,o),
(587,513,o),
(587,513,c),
(587,513,o),
(587,632,o),
(587,704,c),
(580,704,o),
(560,704,o),
(557,704,cs),
(548,704,o),
(546,701,o),
(528,693,cs),
(524,691,o),
(519,690,o),
(513,690,cs),
(505,690,o),
(497,693,o),
(492,696,cs),
(450,726,o),
(398,740,o),
(345,740,cs),
(189,740,o),
(20,612,o),
(20,362,cs),
(20,175,o),
(129,-10,o),
(356,-10,cs),
(494,-10,o),
(599,87,o),
(620,141,c)
);
}
);
width = 614;
}
);
unicode = 67;
}
{
glyphname = D;
layers = (
{
hints = (
{
horizontal = 1;
place = (0,80);
type = Stem;
},
{
horizontal = 1;
place = (650,80);
type = Stem;
},
{
place = (85,140);
type = Stem;
},
{
place = (520,154);
type = Stem;
}
);
layerId = "C6EC6FDA-E503-47EF-96B2-9587BA9C0735";
shapes = (
{
closed = 1;
nodes = (
(674,582,o),
(526,730,o),
(302,730,cs),
(199,730,o),
(35,730,o),
(35,730,c),
(35,730,o),
(35,705,o),
(35,695,cs),
(35,682,o),
(38,678,o),
(58,664,cs),
(81,648,o),
(85,642,o),
(85,613,cs),
(85,518,o),
(85,211,o),
(85,117,cs),
(85,88,o),
(81,83,o),
(58,67,cs),
(37,53,o),
(35,47,o),
(35,35,cs),
(35,25,o),
(35,0,o),
(35,0,c),
(35,0,o),
(271,0,o),
(335,0,cs),
(521,0,o),
(674,147,o),
(674,365,cs)
);
},
{
closed = 1;
nodes = (
(521,165,o),
(432,80,o),
(274,80,cs),
(266,80,o),
(234,80,o),
(225,80,c),
(225,650,l),
(225,650,o),
(253,650,o),
(273,650,cs),
(424,650,o),
(521,555,o),
(521,365,cs)
);
}
);
width = 694;
}
);
unicode = 68;
}
{
glyphname = E;
layers = (
{
hints = (
{
horizontal = 1;
place = (0,80);
type = Stem;
},
{
horizontal = 1;
place = (333,80);
type = Stem;
},
{
horizontal = 1;
place = (650,80);
type = Stem;
},
{
place = (88,140);
type = Stem;
}
);
layerId = "C6EC6FDA-E503-47EF-96B2-9587BA9C0735";
shapes = (
{
closed = 1;
nodes = (
(579,0,l),
(579,11,o),
(579,149,o),
(579,188,c),
(574,188,o),
(550,188,o),
(546,188,cs),
(530,188,o),
(525,182,o),
(519,169,cs),
(485,97,o),
(459,81,o),
(388,81,cs),
(375,81,o),
(251,81,o),
(225,81,c),
(225,81,o),
(225,267,o),
(225,333,c),
(234,333,o),
(272,333,o),
(279,333,cs),
(317,333,o),
(333,328,o),
(355,293,cs),
(361,283,o),
(370,272,o),
(388,272,cs),
(393,272,o),
(405,272,o),
(421,272,c),
(421,282,o),
(421,470,o),
(421,480,c),
(405,480,o),
(398,480,o),
(392,480,cs),
(372,480,o),
(366,473,o),
(359,462,cs),
(337,425,o),
(322,414,o),
(276,414,cs),
(269,414,o),
(234,414,o),
(225,414,c),
(225,549,o),
(225,644,o),
(225,650,c),
(249,650,o),
(325,650,o),
(339,650,cs),
(430,650,o),
(441,641,o),
(471,580,cs),
(476,569,o),
(484,564,o),
(503,564,cs),
(509,564,o),
(522,564,o),
(528,564,c),
(528,582,o),
(528,687,o),
(528,721,cs),
(528,736,o),
(526,736,o),
(506,734,cs),
(490,732,o),
(444,730,o),
(424,730,cs),
(370,730,o),
(35,730,o),
(35,730,c),
(35,730,o),
(35,705,o),
(35,695,cs),
(35,682,o),
(38,678,o),
(58,664,cs),
(81,648,o),
(85,641,o),
(85,613,cs),
(85,518,o),
(85,211,o),
(85,117,cs),
(85,88,o),
(81,83,o),
(58,67,cs),
(37,53,o),
(35,47,o),
(35,35,cs),
(35,25,o),
(35,0,o),
(35,0,c)
);
}
);
width = 594;
}
);
unicode = 69;
}
{
glyphname = F;
layers = (
{
hints = (
{
horizontal = 1;
place = (0,20);
type = Stem;
},
{
horizontal = 1;
place = (330,80);
type = Stem;
},
{
horizontal = 1;
place = (650,80);
type = Stem;
},
{
place = (88,140);
type = Stem;
}
);
layerId = "C6EC6FDA-E503-47EF-96B2-9587BA9C0735";
shapes = (
{
closed = 1;
nodes = (
(567,582,o),
(567,687,o),
(567,721,cs),
(567,736,o),
(565,736,o),
(544,734,cs),
(528,732,o),
(483,730,o),
(463,730,cs),
(408,730,o),
(35,730,o),
(35,730,c),
(35,730,o),
(35,705,o),
(35,695,cs),
(35,682,o),
(38,678,o),
(58,664,cs),
(81,648,o),
(85,641,o),
(85,613,cs),
(85,518,o),
(85,211,o),
(85,117,cs),
(85,88,o),
(81,83,o),
(58,67,cs),
(37,53,o),
(35,47,o),
(35,35,cs),
(35,25,o),
(35,0,o),
(35,0,c),
(275,0,l),
(275,0,o),
(275,25,o),
(275,35,cs),
(275,47,o),
(272,54,o),
(253,67,cs),
(229,83,o),
(225,88,o),
(225,117,cs),
(225,211,o),
(225,264,o),
(225,330,c),
(234,330,o),
(292,330,o),
(299,330,cs),
(344,330,o),
(356,325,o),
(383,290,cs),
(390,281,o),
(402,269,o),
(420,269,cs),
(425,269,o),
(430,269,o),
(446,269,c),
(446,477,l),
(440,477,o),
(426,477,o),
(420,477,cs),
(400,477,o),
(390,470,o),
(383,459,cs),
(363,424,o),
(342,411,o),
(296,411,cs),
(289,411,o),
(234,411,o),
(225,411,c),
(225,546,o),
(225,643,o),
(225,649,c),
(249,649,o),
(356,649,o),
(370,649,cs),
(461,649,o),
(482,637,o),
(502,580,cs),
(505,570,o),
(514,564,o),
(533,564,cs),
(539,564,o),
(561,564,o),
(567,564,c)
);
}
);
width = 576;
}
);
unicode = 70;
}
{
glyphname = G;
layers = (
{
hints = (
{
horizontal = 1;
place = (-10,80);
type = Stem;
},
{
horizontal = 1;
place = (660,80);
type = Stem;
},
{
place = (23,154);
type = Stem;
},
{
place = (508,140);
type = Stem;
}
);
layerId = "C6EC6FDA-E503-47EF-96B2-9587BA9C0735";
shapes = (
{
closed = 1;
nodes = (
(699,68,o),
(699,82,o),
(699,89,c),
(698,105,o),
(695,107,o),
(683,113,cs),
(647,131,o),
(645,153,o),
(645,189,cs),
(645,239,o),
(645,315,o),
(645,315,c),
(444,315,l),
(444,315,o),
(444,285,o),
(444,275,cs),
(444,261,o),
(450,255,o),
(469,246,cs),
(503,231,o),
(507,219,o),
(507,166,cs),
(507,116,o),
(479,71,o),
(382,71,cs),
(271,71,o),
(175,182,o),
(175,365,cs),
(175,574,o),
(265,660,o),
(357,660,cs),
(432,660,o),
(499,610,o),
(530,526,cs),
(533,518,o),
(537,513,o),
(551,513,cs),
(557,513,o),
(595,513,o),
(595,513,c),
(595,704,l),
(595,704,o),
(568,704,o),
(565,704,cs),
(556,704,o),
(555,703,o),
(539,694,cs),
(537,693,o),
(531,691,o),
(527,691,cs),
(518,691,o),
(508,695,o),
(502,699,cs),
(459,726,o),
(411,740,o),
(355,740,cs),
(191,740,o),
(20,610,o),
(20,362,cs),
(20,175,o),
(137,-10,o),
(390,-10,cs),
(528,-10,o),
(623,27,o),
(699,57,c)
);
}
);
width = 698;
}
);
unicode = 71;
}
{
glyphname = H;
layers = (
{
hints = (
{
horizontal = 1;
place = (0,20);
type = Stem;
},
{
horizontal = 1;
place = (336,80);
type = Stem;
},
{
horizontal = 1;
place = (730,-20);
target = down;
type = TopGhost;
},
{
place = (85,140);
type = Stem;
},
{
place = (525,140);
type = Stem;
}
);
layerId = "C6EC6FDA-E503-47EF-96B2-9587BA9C0735";
shapes = (
{
closed = 1;
nodes = (
(714,0,l),
(714,0,o),
(714,25,o),
(714,35,cs),
(714,48,o),
(713,53,o),
(692,67,cs),
(669,83,o),
(665,88,o),
(665,117,cs),
(665,211,o),
(665,518,o),
(665,613,cs),
(665,642,o),
(669,648,o),
(692,664,cs),
(713,679,o),
(714,682,o),
(714,695,cs),
(714,705,o),
(714,730,o),
(714,730,c),
(476,730,l),
(476,730,o),
(476,705,o),
(476,695,cs),
(476,682,o),
(477,679,o),
(498,664,cs),
(521,648,o),
(525,642,o),
(525,613,cs),
(525,574,o),
(525,497,o),
(525,416,c),
(225,416,l),
(225,497,o),
(225,574,o),
(225,613,cs),
(225,642,o),
(228,648,o),
(252,664,cs),
(273,679,o),
(275,682,o),
(275,695,cs),
(275,705,o),
(275,730,o),
(275,730,c),
(35,730,l),
(35,730,o),
(35,705,o),
(35,695,cs),
(35,682,o),
(36,678,o),
(57,664,cs),
(81,647,o),
(85,642,o),
(85,613,cs),
(85,518,o),
(85,211,o),
(85,117,cs),
(85,88,o),
(81,83,o),
(57,67,cs),
(36,53,o),
(35,48,o),
(35,35,cs),
(35,25,o),
(35,0,o),
(35,0,c),
(275,0,l),
(275,0,o),
(275,25,o),
(275,35,cs),
(275,48,o),
(274,53,o),
(252,67,cs),
(229,83,o),
(225,88,o),
(225,117,cs),
(225,160,o),
(225,245,o),
(225,335,c),
(525,335,l),
(525,245,o),
(525,160,o),
(525,117,cs),
(525,88,o),
(521,83,o),
(498,67,cs),
(477,53,o),
(476,48,o),
(476,35,cs),
(476,25,o),
(476,0,o),
(476,0,c)
);
}
);
width = 750;
}
);
unicode = 72;
}
{
glyphname = I;
layers = (
{
hints = (
{
horizontal = 1;
place = (0,20);
type = Stem;
},
{
horizontal = 1;
place = (730,-20);
target = down;
type = TopGhost;
},
{
place = (90,140);
type = Stem;
}
);
layerId = "C6EC6FDA-E503-47EF-96B2-9587BA9C0735";
shapes = (
{
closed = 1;
nodes = (
(277,0,l),
(277,0,o),
(277,25,o),
(277,35,cs),
(277,47,o),
(274,54,o),
(255,67,cs),
(231,83,o),
(227,88,o),
(227,117,cs),
(227,211,o),
(227,518,o),
(227,613,cs),
(227,642,o),
(231,647,o),
(255,664,cs),
(275,678,o),
(277,682,o),
(277,695,cs),
(277,705,o),
(277,730,o),
(277,730,c),
(37,730,l),
(37,730,o),
(37,705,o),
(37,695,cs),
(37,682,o),
(40,678,o),
(60,664,cs),
(83,648,o),
(87,642,o),
(87,613,cs),
(87,518,o),
(87,211,o),
(87,117,cs),
(87,88,o),
(83,83,o),
(60,67,cs),
(39,53,o),
(37,47,o),
(37,35,cs),
(37,25,o),
(37,0,o),
(37,0,c)
);
}
);
width = 314;
}
);
unicode = 73;
}
{
glyphname = J;
layers = (
{
hints = (
{
horizontal = 1;
place = (-10,80);
type = Stem;
},
{
horizontal = 1;
place = (730,-20);
target = down;
type = TopGhost;
},
{
place = (7,140);
type = Stem;
},
{
place = (247,140);
type = Stem;
}
);
layerId = "C6EC6FDA-E503-47EF-96B2-9587BA9C0735";
shapes = (
{
closed = 1;
nodes = (
(434,705,o),
(434,730,o),
(434,730,c),
(194,730,l),
(194,730,o),
(194,705,o),
(194,695,cs),
(194,682,o),
(197,677,o),
(216,664,cs),
(240,647,o),
(244,642,o),
(244,613,cs),
(244,518,o),
(244,275,o),
(244,181,cs),
(244,100,o),
(208,67,o),
(166,67,cs),
(150,67,o),
(130,78,o),
(126,86,c),
(140,99,o),
(146,117,o),
(146,133,cs),
(146,165,o),
(123,195,o),
(78,195,cs),
(39,195,o),
(4,158,o),
(4,105,cs),
(4,47,o),
(62,-10,o),
(164,-10,cs),
(305,-10,o),
(384,89,o),
(384,220,cs),
(384,314,o),
(384,518,o),
(384,613,cs),
(384,642,o),
(388,648,o),
(411,664,cs),
(432,679,o),
(434,682,o),
(434,695,cs)
);
}
);
width = 466;
}
);
unicode = 74;
}
{
glyphname = K;
layers = (
{
hints = (
{
horizontal = 1;
place = (0,20);
type = Stem;
},
{
horizontal = 1;
place = (730,-20);
target = down;
type = TopGhost;
},
{
place = (88,140);
type = Stem;
},
{
place = (411,246);
type = Stem;
}
);
layerId = "C6EC6FDA-E503-47EF-96B2-9587BA9C0735";
shapes = (
{
closed = 1;
nodes = (
(710,0,l),
(710,0,o),
(710,17,o),
(710,27,cs),
(710,40,o),
(708,43,o),
(687,60,cs),
(660,82,o),
(648,90,o),
(623,117,cs),
(336,421,l),
(524,595,ls),
(558,626,o),
(581,645,o),
(621,662,cs),
(653,676,o),
(654,678,o),
(654,695,cs),
(654,705,o),
(654,730,o),
(654,730,c),
(404,730,l),
(404,730,o),
(404,705,o),
(404,695,cs),
(404,682,o),
(403,674,o),
(426,665,cs),
(438,660,o),
(444,655,o),
(444,648,cs),
(444,641,o),
(434,627,o),
(425,619,cs),
(224,429,l),
(224,429,o),
(224,579,o),
(224,613,cs),
(224,642,o),
(229,647,o),
(253,664,cs),
(273,678,o),
(275,682,o),
(275,695,cs),
(275,705,o),
(275,730,o),
(275,730,c),
(35,730,l),
(35,730,o),
(35,705,o),
(35,695,cs),
(35,682,o),
(38,678,o),
(58,664,cs),
(81,648,o),
(85,642,o),
(85,613,cs),
(85,518,o),
(85,211,o),
(85,117,cs),
(85,88,o),
(81,83,o),
(58,67,cs),
(37,53,o),
(35,47,o),
(35,35,cs),
(35,25,o),
(35,0,o),
(35,0,c),
(275,0,l),
(275,0,o),
(275,25,o),
(275,35,cs),
(275,47,o),
(272,54,o),
(253,67,cs),
(229,83,o),
(224,88,o),
(224,117,cs),
(224,159,o),
(224,346,o),
(224,346,c),
(446,101,ls),
(451,96,o),
(454,90,o),
(454,84,cs),
(454,77,o),
(448,70,o),
(440,64,cs),
(420,49,o),
(416,44,o),
(416,35,cs),
(416,25,o),
(416,0,o),
(416,0,c)
);
}
);
width = 701;
}
);
unicode = 75;
}
{
glyphname = L;
layers = (
{
hints = (
{
horizontal = 1;
place = (0,80);
type = Stem;
},
{
horizontal = 1;
place = (730,-20);
target = down;
type = TopGhost;
},
{
place = (88,140);
type = Stem;
}
);
layerId = "C6EC6FDA-E503-47EF-96B2-9587BA9C0735";
shapes = (
{
closed = 1;
nodes = (
(579,0,l),
(579,11,o),
(579,149,o),
(579,188,c),
(574,188,o),
(550,188,o),
(546,188,cs),
(530,188,o),
(525,182,o),
(519,169,cs),
(485,97,o),
(459,81,o),
(388,81,cs),
(375,81,o),
(251,81,o),
(225,81,c),
(225,81,o),
(225,543,o),
(225,613,cs),
(225,642,o),
(229,647,o),
(253,664,cs),
(273,678,o),
(275,682,o),
(275,695,cs),
(275,705,o),
(275,730,o),
(275,730,c),
(35,730,l),
(35,730,o),
(35,705,o),
(35,695,cs),
(35,682,o),
(38,678,o),
(58,664,cs),
(81,648,o),
(85,641,o),
(85,613,cs),
(85,545,o),
(85,211,o),
(85,117,cs),
(85,88,o),
(81,83,o),
(58,67,cs),
(37,53,o),
(35,47,o),
(35,35,cs),
(35,25,o),
(35,0,o),
(35,0,c)
);
}
);
width = 587;
}
);
unicode = 76;
}
{
glyphname = M;
layers = (
{
hints = (
{
horizontal = 1;
place = (0,20);
type = Stem;
},
{
horizontal = 1;
place = (730,-20);
target = down;
type = TopGhost;
},
{
place = (88,146);
type = Stem;
},
{
place = (639,140);
type = Stem;
}
);
layerId = "C6EC6FDA-E503-47EF-96B2-9587BA9C0735";
shapes = (
{
closed = 1;
nodes = (
(825,0,l),
(825,0,o),
(825,25,o),
(825,35,cs),
(825,47,o),
(822,54,o),
(803,67,cs),
(780,83,o),
(776,88,o),
(776,117,cs),
(776,211,o),
(776,518,o),
(776,613,cs),
(776,642,o),
(780,647,o),
(803,664,cs),
(823,678,o),
(825,682,o),
(825,695,cs),
(825,705,o),
(825,730,o),
(825,730,c),
(800,730,o),
(658,730,o),
(607,730,cs),
(597,730,o),
(594,729,o),
(591,721,cs),
(435,250,l),
(281,712,ls),
(275,729,o),
(275,730,o),
(255,730,cs),
(233,730,o),
(35,730,o),
(35,730,c),
(35,730,o),
(35,705,o),
(35,695,cs),
(35,682,o),
(38,678,o),
(58,664,cs),
(81,648,o),
(85,642,o),
(85,613,cs),
(85,518,o),
(85,211,o),
(85,117,cs),
(85,88,o),
(81,83,o),
(58,67,cs),
(37,53,o),
(35,47,o),
(35,35,cs),
(35,25,o),
(35,0,o),
(35,0,c),
(231,0,l),
(231,0,o),
(231,25,o),
(231,35,cs),
(231,47,o),
(228,54,o),
(209,67,cs),
(186,83,o),
(182,88,o),
(182,117,cs),
(182,211,o),
(182,584,o),
(182,584,c),
(378,9,ls),
(380,2,o),
(383,0,o),
(396,0,cs),
(400,0,o),
(408,0,o),
(416,0,cs),
(425,0,o),
(430,2,o),
(432,9,cs),
(636,613,l),
(636,613,o),
(636,211,o),
(636,117,cs),
(636,88,o),
(632,83,o),
(609,67,cs),
(589,53,o),
(587,47,o),
(587,35,cs),
(587,25,o),
(587,0,o),
(587,0,c)
);
}
);
width = 861;
}
);
unicode = 77;
}
{
glyphname = N;
layers = (
{
hints = (
{
horizontal = 1;
place = (-10,20);
type = Stem;
},
{
horizontal = 1;
place = (730,-20);
target = down;
type = TopGhost;
},
{
place = (88,140);
type = Stem;
},
{
place = (537,140);
type = Stem;
}
);
layerId = "C6EC6FDA-E503-47EF-96B2-9587BA9C0735";
shapes = (
{
closed = 1;
nodes = (
(672,711,o),
(672,730,o),
(672,730,c),
(485,730,l),
(485,730,o),
(485,713,o),
(485,703,cs),
(485,691,o),
(487,687,o),
(507,672,cs),
(532,652,o),
(534,642,o),
(534,613,cs),
(534,519,o),
(534,271,o),
(534,271,c),
(249,709,ls),
(235,730,o),
(235,730,o),
(215,730,cs),
(194,730,o),
(35,730,o),
(35,730,c),
(35,730,o),
(35,708,o),
(35,698,cs),
(35,685,o),
(39,682,o),
(58,667,cs),
(84,648,o),
(85,645,o),
(85,616,cs),
(85,521,o),
(85,208,o),
(85,114,cs),
(85,85,o),
(81,80,o),
(58,64,cs),
(37,49,o),
(35,44,o),
(35,32,cs),
(35,22,o),
(35,0,o),
(35,0,c),
(226,0,l),
(226,0,o),
(226,22,o),
(226,32,cs),
(226,44,o),
(223,50,o),
(204,64,cs),
(181,80,o),
(174,85,o),
(174,114,cs),
(174,208,o),
(174,573,o),
(174,573,c),
(540,7,ls),
(545,-1,o),
(553,-10,o),
(565,-10,cs),
(569,-10,o),
(602,-10,o),
(610,-10,cs),
(622,-10,o),
(624,-6,o),
(624,7,cs),
(624,208,o),
(624,519,o),
(624,613,cs),
(624,643,o),
(626,655,o),
(647,670,cs),
(671,686,o),
(672,686,o),
(672,701,cs)
);
}
);
width = 709;
}
);
unicode = 78;
}
{
glyphname = O;
layers = (
{
hints = (
{
horizontal = 1;
place = (-10,80);
type = Stem;
},
{
horizontal = 1;
place = (660,80);
type = Stem;
},
{
place = (23,154);
type = Stem;
},
{
place = (546,154);
type = Stem;
}
);
layerId = "C6EC6FDA-E503-47EF-96B2-9587BA9C0735";
shapes = (
{
closed = 1;
nodes = (
(697,582,o),
(558,740,o),
(359,740,cs),
(160,740,o),
(20,582,o),
(20,365,cs),
(20,143,o),
(160,-10,o),
(359,-10,cs),
(558,-10,o),
(697,147,o),
(697,365,cs)
);
},
{
closed = 1;
nodes = (
(544,171,o),
(471,71,o),
(359,71,cs),
(247,71,o),
(173,175,o),
(173,365,cs),
(173,554,o),
(247,660,o),
(359,660,cs),
(471,660,o),
(544,554,o),
(544,365,cs)
);
}
);
width = 717;
}
);
unicode = 79;
}
{
glyphname = P;
layers = (
{
hints = (
{
horizontal = 1;
place = (0,20);
type = Stem;
},
{
horizontal = 1;
place = (318,80);
type = Stem;
},
{
horizontal = 1;
place = (650,80);
type = Stem;
},
{
place = (88,140);
type = Stem;
},
{
place = (425,154);
type = Stem;
}
);
layerId = "C6EC6FDA-E503-47EF-96B2-9587BA9C0735";
shapes = (
{
closed = 1;
nodes = (
(576,629,o),
(492,730,o),
(335,730,cs),
(215,730,o),
(35,730,o),
(35,730,c),
(35,730,o),
(35,705,o),
(35,695,cs),
(35,682,o),
(38,678,o),
(58,664,cs),
(81,648,o),
(85,642,o),
(85,613,cs),
(85,518,o),
(85,211,o),
(85,117,cs),
(85,88,o),
(81,83,o),
(58,67,cs),
(37,53,o),
(35,47,o),
(35,35,cs),
(35,25,o),
(35,0,o),
(35,0,c),
(275,0,l),
(275,0,o),
(275,25,o),
(275,35,cs),
(275,47,o),
(272,54,o),
(253,67,cs),
(229,83,o),
(225,88,o),
(225,117,cs),
(225,211,o),
(225,318,o),
(225,318,c),
(225,318,o),
(307,318,o),
(314,318,cs),
(499,318,o),
(576,423,o),
(576,527,cs)
);
},
{
closed = 1;
nodes = (
(423,450,o),
(378,398,o),
(288,398,cs),
(282,398,o),
(230,398,o),
(225,398,c),
(225,524,o),
(225,650,o),
(225,650,c),
(225,650,o),
(273,650,o),
(284,650,cs),
(377,650,o),
(423,593,o),
(423,523,cs)
);
}
);
width = 580;
}
);
unicode = 80;
}
{
glyphname = Q;
layers = (
{
hints = (
{
horizontal = 1;
place = (-172,102);
type = Stem;
},
{
horizontal = 1;
place = (660,80);
type = Stem;
},
{
place = (23,154);
type = Stem;
},
{
place = (546,154);
type = Stem;
}
);
layerId = "C6EC6FDA-E503-47EF-96B2-9587BA9C0735";
shapes = (
{
closed = 1;
nodes = (
(716,-61,l),
(698,-65,o),
(682,-70,o),
(656,-70,cs),
(612,-70,o),
(591,-50,o),
(530,-22,cs),
(508,-12,o),
(484,-3,o),
(456,5,c),
(601,47,o),
(697,186,o),
(697,365,cs),
(697,582,o),
(558,740,o),
(359,740,cs),
(160,740,o),
(20,582,o),
(20,365,cs),
(20,178,o),
(119,40,o),
(269,1,c),
(307,-20,o),
(345,-43,o),
(408,-91,cs),
(456,-127,o),
(515,-172,o),
(582,-172,cs),
(648,-172,o),
(695,-132,o),
(716,-112,c)
);
},
{
closed = 1;
nodes = (
(544,171,o),
(471,65,o),
(359,65,cs),
(246,65,o),
(173,175,o),
(173,365,cs),
(173,554,o),
(246,662,o),
(359,662,cs),
(471,662,o),
(544,554,o),
(544,365,cs)
);
}
);
width = 717;
}
);
unicode = 81;
}
{
glyphname = R;
layers = (
{
hints = (
{
horizontal = 1;
place = (0,20);
type = Stem;
},
{
horizontal = 1;
place = (328,80);
type = Stem;
},
{
horizontal = 1;
place = (650,80);
type = Stem;
},
{
place = (88,140);
type = Stem;
},
{
place = (434,154);
type = Stem;
}
);
layerId = "C6EC6FDA-E503-47EF-96B2-9587BA9C0735";
shapes = (
{
closed = 1;
nodes = (
(666,0,l),
(666,0,o),
(666,25,o),
(666,35,cs),
(666,47,o),
(659,53,o),
(634,70,cs),
(611,86,o),
(601,95,o),
(578,133,cs),
(471,312,o),
(464,330,o),
(416,348,c),
(530,372,o),
(585,450,o),
(585,534,cs),
(585,641,o),
(507,730,o),
(368,730,cs),
(248,730,o),
(35,730,o),
(35,730,c),
(35,730,o),
(35,705,o),
(35,695,cs),
(35,682,o),
(38,678,o),
(58,664,cs),
(81,648,o),
(85,642,o),
(85,613,cs),
(85,518,o),
(85,211,o),
(85,117,cs),
(85,88,o),
(81,83,o),
(58,67,cs),
(37,53,o),
(35,47,o),
(35,35,cs),
(35,25,o),
(35,0,o),
(35,0,c),
(275,0,l),
(275,0,o),
(275,25,o),
(275,35,cs),
(275,47,o),
(272,54,o),
(253,67,cs),
(229,83,o),
(225,88,o),
(225,117,cs),
(225,202,o),
(225,311,o),
(225,332,c),
(278,332,o),
(310,303,o),
(387,176,cs),
(415,130,o),
(452,71,o),
(496,0,c)
);
},
{
closed = 1;
nodes = (
(429,445,o),
(372,408,o),
(282,408,cs),
(276,408,o),
(230,408,o),
(225,408,c),
(225,534,o),
(225,650,o),
(225,650,c),
(225,650,o),
(289,650,o),
(300,650,cs),
(375,650,o),
(429,612,o),
(429,532,cs)
);
}
);
width = 670;
}
);
unicode = 82;
}
{
glyphname = S;
layers = (
{
hints = (
{
horizontal = 1;
place = (-9,80);
type = Stem;
},
{
horizontal = 1;
place = (661,80);
type = Stem;
},
{
place = (44,109);
type = Stem;
},
{
place = (403,116);
type = Stem;
}
);
layerId = "C6EC6FDA-E503-47EF-96B2-9587BA9C0735";
shapes = (
{
closed = 1;
nodes = (
(516,332,o),
(453,406,o),
(358,439,cs),
(319,453,o),
(266,469,o),
(227,483,cs),
(170,503,o),
(150,531,o),
(150,574,cs),
(150,618,o),
(192,661,o),
(254,661,cs),
(346,661,o),
(380,595,o),
(400,541,cs),
(402,536,o),
(407,532,o),
(420,532,cs),
(455,532,l),
(455,728,l),
(420,728,ls),
(412,728,o),
(411,726,o),
(404,720,cs),
(396,713,o),
(392,712,o),
(385,712,cs),
(379,712,o),
(371,717,o),
(362,721,cs),
(337,733,o),
(309,742,o),
(258,742,cs),
(129,742,o),
(41,652,o),
(41,528,cs),
(41,446,o),
(84,373,o),
(186,335,cs),
(203,329,o),
(259,311,o),
(302,297,cs),
(373,274,o),
(404,235,o),
(404,185,cs),
(404,124,o),
(352,71,o),
(269,71,cs),
(205,71,o),
(139,107,o),
(92,189,cs),
(86,199,o),
(83,201,o),
(73,201,cs),
(29,201,l),
(29,6,ls),
(29,3,o),
(31,0,o),
(36,0,cs),
(69,0,ls),
(77,0,o),
(84,2,o),
(90,10,cs),
(99,22,o),
(106,24,o),
(114,24,cs),
(121,24,o),
(130,21,o),
(143,16,cs),
(167,7,o),
(207,-10,o),
(269,-10,cs),
(425,-10,o),
(516,105,o),
(516,236,cs)
);
}
);
width = 542;
}
);
unicode = 83;
}
{
glyphname = T;
layers = (
{
hints = (
{
horizontal = 1;
place = (0,20);
type = Stem;
},
{
horizontal = 1;
place = (650,80);
type = Stem;
},
{
place = (244,140);
type = Stem;
}
);
layerId = "C6EC6FDA-E503-47EF-96B2-9587BA9C0735";
shapes = (
{
closed = 1;
nodes = (
(617,579,o),
(617,687,o),
(617,721,cs),
(617,736,o),
(615,736,o),
(596,734,cs),
(579,732,o),
(541,730,o),
(520,730,cs),
(101,730,ls),
(81,730,o),
(44,732,o),
(26,734,cs),
(7,736,o),
(5,736,o),
(5,721,cs),
(5,687,o),
(5,579,o),
(5,561,c),
(9,561,o),
(20,561,o),
(32,561,cs),
(56,561,o),
(68,571,o),
(73,583,cs),
(95,636,o),
(123,650,o),
(171,650,cs),
(186,650,o),
(224,650,o),
(241,650,c),
(241,650,o),
(241,211,o),
(241,117,cs),
(241,88,o),
(231,83,o),
(208,67,cs),
(188,53,o),
(186,47,o),
(186,35,cs),
(186,25,o),
(186,0,o),
(186,0,c),
(435,0,l),
(435,0,o),
(435,25,o),
(435,35,cs),
(435,47,o),
(432,54,o),
(413,67,cs),
(390,83,o),
(381,88,o),
(381,117,cs),
(381,211,o),
(381,650,o),
(381,650,c),
(397,650,o),
(435,650,o),
(451,650,cs),
(498,650,o),
(526,636,o),
(549,583,cs),
(554,571,o),
(567,561,o),
(588,561,cs),
(600,561,o),
(613,561,o),
(617,561,c)
);
}
);
width = 622;
}
);
unicode = 84;
}
{
glyphname = U;
layers = (
{
hints = (
{
horizontal = 1;
place = (-10,88);
type = Stem;
},
{
horizontal = 1;
place = (730,-20);
target = down;
type = TopGhost;
},
{
place = (86,140);
type = Stem;
},
{
place = (568,140);
type = Stem;
}
);
layerId = "C6EC6FDA-E503-47EF-96B2-9587BA9C0735";
shapes = (
{
closed = 1;
nodes = (
(705,710,o),
(705,730,o),
(705,730,c),
(515,730,l),
(515,730,o),
(515,710,o),
(515,700,cs),
(515,687,o),
(518,683,o),
(537,669,cs),
(559,653,o),
(565,647,o),
(565,618,cs),
(565,523,o),
(565,367,o),
(565,273,cs),
(565,153,o),
(509,77,o),
(390,77,cs),
(286,77,o),
(223,159,o),
(223,273,cs),
(223,367,o),
(223,518,o),
(223,613,cs),
(223,642,o),
(227,647,o),
(251,664,cs),
(272,678,o),
(273,680,o),
(273,695,cs),
(273,705,o),
(273,730,o),
(273,730,c),
(33,730,l),
(33,730,o),
(33,705,o),
(33,695,cs),
(33,682,o),
(35,679,o),
(56,664,cs),
(82,646,o),
(83,644,o),
(83,613,cs),
(83,518,o),
(83,367,o),
(83,273,cs),
(83,115,o),
(165,-10,o),
(379,-10,cs),
(574,-10,o),
(656,131,o),
(656,273,cs),
(656,367,o),
(656,523,o),
(656,618,cs),
(656,647,o),
(660,652,o),
(683,669,cs),
(703,683,o),
(705,687,o),
(705,700,cs)
);
}
);
width = 739;
}
);
unicode = 85;
}
{
glyphname = V;
layers = (
{
hints = (
{
horizontal = 1;
place = (-9,20);
type = Stem;
},
{
horizontal = 1;
place = (730,-20);
target = down;
type = TopGhost;
},
{
place = (-6,269);
type = Stem;
},
{
place = (497,203);
type = Stem;
}
);
layerId = "C6EC6FDA-E503-47EF-96B2-9587BA9C0735";
shapes = (
{
closed = 1;
nodes = (
(697,710,o),
(697,730,o),
(697,730,c),
(490,730,l),
(490,730,o),
(490,711,o),
(490,707,cs),
(490,694,o),
(497,686,o),
(517,676,cs),
(532,668,o),
(542,660,o),
(542,644,cs),
(542,633,o),
(539,621,o),
(533,605,cs),
(379,216,l),
(222,613,ls),
(218,623,o),
(215,632,o),
(215,640,cs),
(215,652,o),
(222,663,o),
(238,674,cs),
(259,689,o),
(260,690,o),
(260,705,cs),
(260,715,o),
(260,730,o),
(260,730,c),
(-9,730,l),
(-9,730,o),
(-9,705,o),
(-9,695,cs),
(-9,682,o),
(-9,678,o),
(14,664,cs),
(42,647,o),
(57,630,o),
(64,613,cs),
(320,1,ls),
(323,-7,o),
(327,-9,o),
(337,-9,cs),
(342,-9,o),
(361,-9,o),
(369,-9,cs),
(378,-9,o),
(380,-6,o),
(383,1,cs),
(625,594,ls),
(644,640,o),
(650,646,o),
(678,670,cs),
(693,683,o),
(697,687,o),
(697,700,cs)
);
}
);
width = 697;
}
);
unicode = 86;
}
{
glyphname = W;
layers = (
{
hints = (
{
horizontal = 1;
place = (-9,20);
type = Stem;
},
{
horizontal = 1;
place = (730,-20);
target = down;
type = TopGhost;
},
{
place = (-1,258);
type = Stem;
},
{
place = (356,254);
type = Stem;
},
{
place = (786,203);
type = Stem;
}
);
layerId = "C6EC6FDA-E503-47EF-96B2-9587BA9C0735";
shapes = (
{
closed = 1;
nodes = (
(986,710,o),
(986,730,o),
(986,730,c),
(779,730,l),
(779,730,o),
(779,711,o),
(779,707,cs),
(779,694,o),
(786,686,o),
(805,676,cs),
(821,668,o),
(829,660,o),
(829,642,cs),
(829,633,o),
(827,621,o),
(822,605,cs),
(699,223,l),
(567,613,ls),
(563,624,o),
(561,632,o),
(561,640,cs),
(561,652,o),
(568,662,o),
(585,674,cs),
(606,688,o),
(607,690,o),
(607,705,cs),
(607,715,o),
(607,730,o),
(607,730,c),
(353,730,l),
(353,730,o),
(353,705,o),
(353,695,cs),
(353,682,o),
(353,677,o),
(375,664,cs),
(398,650,o),
(412,635,o),
(421,610,cs),
(452,521,l),
(352,223,l),
(219,607,ls),
(216,616,o),
(212,627,o),
(212,635,cs),
(212,647,o),
(218,656,o),
(235,668,cs),
(254,682,o),
(254,687,o),
(254,705,cs),
(254,715,o),
(254,730,o),
(254,730,c),
(-4,730,l),
(-4,730,o),
(-4,705,o),
(-4,695,cs),
(-4,682,o),
(-4,678,o),
(19,664,cs),
(47,647,o),
(61,627,o),
(67,610,cs),
(292,1,ls),
(295,-6,o),
(299,-9,o),
(309,-9,cs),
(314,-9,o),
(336,-9,o),
(344,-9,cs),
(353,-9,o),
(356,-6,o),
(358,1,cs),
(493,406,l),
(643,1,ls),
(646,-6,o),
(650,-9,o),
(660,-9,cs),
(665,-9,o),
(686,-9,o),
(694,-9,cs),
(703,-9,o),
(706,-6,o),
(708,1,cs),
(913,594,ls),
(929,640,o),
(939,646,o),
(967,670,cs),
(982,683,o),
(986,687,o),
(986,700,cs)
);
}
);
width = 988;
}
);
unicode = 87;
}
{
glyphname = X;
layers = (
{
hints = (
{
horizontal = 1;
place = (0,20);
type = Stem;
},
{
horizontal = 1;
place = (730,-20);
target = down;
type = TopGhost;
},
{
place = (0,227);
type = Stem;
},
{
place = (441,211);
type = Stem;
}
);
layerId = "C6EC6FDA-E503-47EF-96B2-9587BA9C0735";
shapes = (
{
closed = 1;
nodes = (
(666,0,l),
(666,0,o),
(666,25,o),
(666,35,cs),
(666,49,o),
(660,53,o),
(637,67,cs),
(608,84,o),
(596,96,o),
(576,126,cs),
(406,387,l),
(548,585,ls),
(582,632,o),
(605,661,o),
(629,671,cs),
(648,679,o),
(651,687,o),
(651,700,cs),
(651,710,o),
(651,730,o),
(651,730,c),
(438,730,l),
(438,730,o),
(438,709,o),
(438,705,cs),
(438,691,o),
(446,681,o),
(456,674,cs),
(470,664,o),
(476,654,o),
(476,643,cs),
(476,631,o),
(468,616,o),
(456,599,cs),
(358,460,l),
(263,608,ls),
(252,625,o),
(247,638,o),
(247,649,cs),
(247,660,o),
(253,668,o),
(263,675,cs),
(280,686,o),
(281,690,o),
(281,705,cs),
(281,715,o),
(281,730,o),
(281,730,c),
(13,730,l),
(13,730,o),
(13,705,o),
(13,695,cs),
(13,682,o),
(13,678,o),
(36,664,cs),
(66,646,o),
(81,634,o),
(101,604,cs),
(262,358,l),
(108,147,ls),
(69,94,o),
(52,75,o),
(18,59,cs),
(-1,50,o),
(-3,43,o),
(-3,30,cs),
(-3,20,o),
(-3,0,o),
(-3,0,c),
(222,0,l),
(222,0,o),
(222,24,o),
(222,28,cs),
(222,42,o),
(215,51,o),
(204,56,cs),
(186,65,o),
(179,75,o),
(179,88,cs),
(179,99,o),
(187,114,o),
(196,127,cs),
(309,286,l),
(411,126,ls),
(422,109,o),
(428,96,o),
(428,84,cs),
(428,72,o),
(423,64,o),
(412,56,cs),
(395,44,o),
(394,40,o),
(394,25,cs),
(394,15,o),
(394,0,o),
(394,0,c)
);
}
);
width = 663;
}
);
unicode = 88;
}
{
glyphname = Y;
layers = (
{
hints = (
{
horizontal = 1;
place = (0,20);
type = Stem;
},
{
horizontal = 1;
place = (730,-20);
target = down;
type = TopGhost;
},
{
place = (247,140);
type = Stem;
}
);
layerId = "C6EC6FDA-E503-47EF-96B2-9587BA9C0735";
shapes = (
{
closed = 1;
nodes = (
(628,710,o),
(628,730,o),
(628,730,c),
(425,730,l),
(425,730,o),
(425,711,o),
(425,707,cs),
(425,694,o),
(433,686,o),
(452,676,cs),
(466,668,o),
(474,662,o),
(474,651,cs),
(474,643,o),
(468,630,o),
(459,614,cs),
(346,423,l),
(229,617,ls),
(221,630,o),
(217,641,o),
(217,649,cs),
(217,660,o),
(222,665,o),
(235,674,cs),
(256,688,o),
(257,690,o),
(257,705,cs),
(257,715,o),
(257,730,o),
(257,730,c),
(-10,730,l),
(-10,730,o),
(-10,705,o),
(-10,695,cs),
(-10,682,o),
(-10,677,o),
(12,664,cs),
(41,646,o),
(55,629,o),
(65,614,cs),
(244,332,l),
(244,332,o),
(244,211,o),
(244,117,cs),
(244,88,o),
(240,83,o),
(216,67,cs),
(196,53,o),
(194,47,o),
(194,35,cs),
(194,25,o),
(194,0,o),
(194,0,c),
(434,0,l),
(434,0,o),
(434,25,o),
(434,35,cs),
(434,47,o),
(431,54,o),
(411,67,cs),
(388,83,o),
(384,88,o),
(384,117,cs),
(384,211,o),
(384,332,o),
(384,332,c),
(544,597,ls),
(570,639,o),
(580,648,o),
(608,671,cs),
(623,684,o),
(628,687,o),
(628,700,cs)
);
}
);
width = 618;
}
);
unicode = 89;
}
{
glyphname = Z;
layers = (
{
hints = (
{
horizontal = 1;
place = (-2,80);
type = Stem;
},
{
horizontal = 1;
place = (650,80);
type = Stem;
}
);
layerId = "C6EC6FDA-E503-47EF-96B2-9587BA9C0735";
shapes = (
{
closed = 1;
nodes = (
(585,24,o),
(585,153,o),
(585,191,c),
(577,191,o),
(558,191,o),
(551,191,cs),
(535,191,o),
(530,185,o),
(520,162,cs),
(495,103,o),
(472,81,o),
(379,81,cs),
(352,81,o),
(190,81,o),
(190,81,c),
(564,646,ls),
(576,664,o),
(579,672,o),
(579,689,cs),
(579,702,o),
(579,730,o),
(579,730,c),
(579,730,o),
(212,730,o),
(157,730,cs),
(136,730,o),
(89,732,o),
(73,734,cs),
(53,736,o),
(51,736,o),
(51,721,cs),
(51,687,o),
(51,578,o),
(51,560,c),
(63,560,o),
(73,560,o),
(83,560,cs),
(102,560,o),
(111,567,o),
(116,578,cs),
(148,646,o),
(159,650,o),
(271,650,cs),
(286,650,o),
(402,650,o),
(402,650,c),
(30,85,ls),
(19,68,o),
(12,57,o),
(12,36,cs),
(12,3,o),
(12,0,o),
(12,0,c),
(12,0,o),
(426,0,o),
(479,0,cs),
(499,0,o),
(541,-2,o),
(558,-2,cs),
(582,-2,o),
(585,-2,o),
(585,13,cs)
);
}
);
width = 609;
}
);
unicode = 90;
}
{
glyphname = bracketleft;
layers = (
{
hints = (
{
horizontal = 1;
place = (-188,46);
type = Stem;
},
{
horizontal = 1;
place = (684,46);
type = Stem;
},
{
place = (75,128);
type = Stem;
}
);
layerId = "C6EC6FDA-E503-47EF-96B2-9587BA9C0735";
shapes = (
{
closed = 1;
nodes = (
(317,-144,l),
(196,-144,l),
(196,685,l),
(317,685,l),
(317,730,l),
(72,730,l),
(72,-188,l),
(317,-188,l)
);
}
);
width = 337;
}
);
unicode = 91;
}
{
glyphname = backslash;
layers = (
{
hints = (
{
horizontal = 1;
place = (730,-20);
target = down;
type = TopGhost;
}
);
layerId = "C6EC6FDA-E503-47EF-96B2-9587BA9C0735";
shapes = (
{
closed = 1;
nodes = (
(100,730,l),
(11,730,l),
(368,-190,l),
(456,-190,l)
);
}
);
width = 412;
}
);
unicode = 92;
}
{
glyphname = bracketright;
layers = (
{
hints = (
{
horizontal = 1;
place = (-188,46);
type = Stem;
},
{
horizontal = 1;
place = (684,46);
type = Stem;
},
{
place = (140,128);
type = Stem;
}
);
layerId = "C6EC6FDA-E503-47EF-96B2-9587BA9C0735";
shapes = (
{
closed = 1;
nodes = (
(265,730,l),
(20,730,l),
(20,685,l),
(141,685,l),
(141,-144,l),
(20,-144,l),
(20,-188,l),
(265,-188,l)
);
}
);
width = 337;
}
);
unicode = 93;
}
{
glyphname = asciicircum;
layers = (
{
hints = (
{
horizontal = 1;
place = (730,-20);
target = down;
type = TopGhost;
}
);
layerId = "C6EC6FDA-E503-47EF-96B2-9587BA9C0735";
shapes = (
{
closed = 1;
nodes = (
(407,730,l),
(333,730,l),
(97,314,l),
(192,314,l),
(370,645,l),
(548,314,l),
(643,314,l)
);
}
);
width = 740;
}
);
unicode = 94;
}
{
glyphname = underscore;
layers = (
{
hints = (
{
horizontal = 1;
place = (-103,56);
type = Stem;
}
);
layerId = "C6EC6FDA-E503-47EF-96B2-9587BA9C0735";
shapes = (
{
closed = 1;
nodes = (
(497,-50,l),
(-3,-50,l),
(-3,-103,l),
(497,-103,l)
);
}
);
width = 494;
}
);
unicode = 95;
}
{
glyphname = a;
layers = (
{
hints = (
{
horizontal = 1;
place = (-6,80);
type = Stem;
},
{
horizontal = 1;
place = (222,56);
type = Stem;
},
{
horizontal = 1;
place = (367,71);
type = Stem;
},
{
place = (18,128);
type = Stem;
},
{
place = (277,128);
type = Stem;
}
);
layerId = "C6EC6FDA-E503-47EF-96B2-9587BA9C0735";
shapes = (
{
closed = 1;
nodes = (
(479,65,o),
(465,81,o),
(461,86,c),
(455,82,o),
(445,78,o),
(437,78,cs),
(416,78,o),
(402,89,o),
(402,112,cs),
(402,148,o),
(402,237,o),
(402,256,cs),
(402,362,o),
(346,438,o),
(208,438,cs),
(97,438,o),
(50,390,o),
(50,349,cs),
(50,317,o),
(71,290,o),
(108,290,cs),
(140,290,o),
(170,314,o),
(176,365,c),
(180,367,o),
(190,370,o),
(204,370,cs),
(255,370,o),
(277,339,o),
(277,278,c),
(102,278,o),
(15,208,o),
(15,119,cs),
(15,34,o),
(84,-9,o),
(158,-9,cs),
(207,-9,o),
(258,11,o),
(291,50,c),
(311,11,o),
(347,-6,o),
(384,-6,cs),
(426,-6,o),
(468,22,o),
(485,55,c)
);
},
{
closed = 1;
nodes = (
(275,88,o),
(239,64,o),
(204,64,cs),
(174,64,o),
(145,83,o),
(145,127,cs),
(145,181,o),
(196,218,o),
(275,221,c),
(275,178,o),
(275,157,o),
(275,130,cs)
);
}
);
width = 465;
}
);
unicode = 97;
}
{
glyphname = b;
layers = (
{
hints = (
{
horizontal = 1;
place = (-9,71);
type = Stem;
},
{
horizontal = 1;
place = (353,80);
type = Stem;
},
{
horizontal = 1;
place = (730,-20);
target = down;
type = TopGhost;
},
{
place = (59,128);
type = Stem;
},
{
place = (371,128);
type = Stem;
}
);
layerId = "C6EC6FDA-E503-47EF-96B2-9587BA9C0735";
shapes = (
{
closed = 1;
nodes = (
(496,364,o),
(399,433,o),
(304,433,cs),
(243,433,o),
(205,409,o),
(184,391,c),
(184,408,o),
(184,642,o),
(184,730,c),
(15,719,l),
(15,719,o),
(15,697,o),
(15,687,cs),
(15,676,o),
(18,675,o),
(35,664,cs),
(56,650,o),
(57,647,o),
(57,616,cs),
(57,593,o),
(57,241,o),
(57,-1,cs),
(57,-9,o),
(64,-11,o),
(74,-6,cs),
(108,10,o),
(117,16,o),
(135,25,cs),
(154,35,o),
(154,35,o),
(173,23,cs),
(204,4,o),
(240,-9,o),
(288,-9,cs),
(420,-9,o),
(496,101,o),
(496,218,cs)
);
},
{
closed = 1;
nodes = (
(366,124,o),
(334,65,o),
(262,65,cs),
(225,65,o),
(197,85,o),
(184,98,c),
(184,173,o),
(184,241,o),
(184,317,c),
(206,343,o),
(232,357,o),
(271,357,cs),
(320,357,o),
(366,325,o),
(366,216,cs)
);
}
);
width = 512;
}
);
unicode = 98;
}
{
glyphname = c;
layers = (
{
hints = (
{
horizontal = 1;
place = (-9,80);
type = Stem;
},
{
horizontal = 1;
place = (359,71);
type = Stem;
},
{
place = (19,128);
type = Stem;
},
{
place = (264,128);
type = Stem;
}
);
layerId = "C6EC6FDA-E503-47EF-96B2-9587BA9C0735";
shapes = (
{
closed = 1;
nodes = (
(376,138,l),
(344,105,o),
(311,74,o),
(257,74,cs),
(179,74,o),
(146,150,o),
(146,222,cs),
(146,300,o),
(175,359,o),
(239,359,cs),
(250,359,o),
(264,355,o),
(269,351,c),
(266,340,o),
(264,328,o),
(264,319,cs),
(264,278,o),
(294,259,o),
(327,259,cs),
(357,259,o),
(389,283,o),
(389,330,cs),
(389,374,o),
(344,430,o),
(235,430,cs),
(106,430,o),
(16,327,o),
(16,207,cs),
(16,71,o),
(114,-9,o),
(234,-9,cs),
(335,-9,o),
(394,51,o),
(419,93,c)
);
}
);
width = 405;
}
);
unicode = 99;
}
{
glyphname = d;
layers = (
{
hints = (
{
horizontal = 1;
place = (-8,88);
type = Stem;
},
{
horizontal = 1;
place = (353,80);
type = Stem;
},
{
horizontal = 1;
place = (730,-20);
target = down;
type = TopGhost;
},
{
place = (19,128);
type = Stem;
},
{
place = (326,128);
type = Stem;
}
);
layerId = "C6EC6FDA-E503-47EF-96B2-9587BA9C0735";
shapes = (
{
closed = 1;
nodes = (
(493,0,l),
(493,0,o),
(493,22,o),
(493,32,cs),
(493,42,o),
(489,44,o),
(473,55,cs),
(452,70,o),
(451,72,o),
(451,103,cs),
(451,116,o),
(451,730,o),
(451,730,c),
(282,719,l),
(282,719,o),
(282,697,o),
(282,687,cs),
(282,676,o),
(285,675,o),
(301,664,cs),
(323,650,o),
(324,647,o),
(324,616,cs),
(324,607,o),
(324,506,o),
(324,388,c),
(300,411,o),
(268,433,o),
(208,433,cs),
(107,433,o),
(16,351,o),
(16,212,cs),
(16,88,o),
(93,-8,o),
(209,-8,cs),
(264,-8,o),
(302,16,o),
(330,50,c),
(330,25,o),
(330,0,o),
(330,0,c)
);
},
{
closed = 1;
nodes = (
(301,91,o),
(271,78,o),
(243,78,cs),
(192,78,o),
(147,118,o),
(147,218,cs),
(147,288,o),
(171,356,o),
(243,356,cs),
(279,356,o),
(304,339,o),
(324,316,c),
(324,243,o),
(324,172,o),
(324,113,c)
);
}
);
width = 514;
}
);
unicode = 100;
}
{
glyphname = e;
layers = (
{
hints = (
{
horizontal = 1;
place = (-9,71);
type = Stem;
},
{
horizontal = 1;
place = (210,71);
type = Stem;
},
{
horizontal = 1;
place = (367,71);
type = Stem;
},
{
place = (19,128);
type = Stem;
},
{
place = (309,128);
type = Stem;
}
);
layerId = "C6EC6FDA-E503-47EF-96B2-9587BA9C0735";
shapes = (
{
closed = 1;
nodes = (
(434,332,o),
(370,438,o),
(236,438,cs),
(88,438,o),
(16,322,o),
(16,208,cs),
(16,99,o),
(92,-9,o),
(240,-9,cs),
(341,-9,o),
(409,58,o),
(430,97,c),
(390,139,l),
(359,104,o),
(315,65,o),
(261,65,cs),
(179,65,o),
(143,140,o),
(140,214,c),
(211,214,o),
(332,214,o),
(405,214,cs),
(426,214,o),
(434,222,o),
(434,241,cs)
);
},
{
closed = 1;
nodes = (
(267,281,o),
(193,281,o),
(147,281,c),
(154,330,o),
(187,365,o),
(230,365,cs),
(283,365,o),
(302,329,o),
(302,281,c)
);
}
);
width = 447;
}
);
unicode = 101;
}
{
glyphname = f;
layers = (
{
hints = (
{
horizontal = 1;
place = (0,20);
type = Stem;
},
{
horizontal = 1;
place = (350,71);
type = Stem;
},
{
horizontal = 1;
place = (587,144);
type = Stem;
},
{
place = (76,128);
type = Stem;
},
{
place = (236,128);
type = Stem;
}
);
layerId = "C6EC6FDA-E503-47EF-96B2-9587BA9C0735";
shapes = (
{
closed = 1;
nodes = (
(361,691,o),
(337,731,o),
(267,731,cs),
(145,731,o),
(73,582,o),
(73,454,cs),
(73,433,o),
(72,426,o),
(59,418,cs),
(36,404,o),
(33,402,o),
(33,395,cs),
(33,379,o),
(33,355,o),
(33,349,c),
(39,349,o),
(54,349,o),
(73,349,c),
(73,254,o),
(73,127,o),
(73,103,cs),
(73,72,o),
(72,70,o),
(51,55,cs),
(35,44,o),
(32,42,o),
(32,32,cs),
(32,22,o),
(32,0,o),
(32,0,c),
(243,0,l),
(243,0,o),
(243,22,o),
(243,32,cs),
(243,42,o),
(240,44,o),
(223,55,cs),
(201,69,o),
(200,72,o),
(200,103,c),
(200,103,o),
(200,340,o),
(200,349,c),
(258,349,o),
(310,349,o),
(319,349,c),
(319,358,o),
(319,406,o),
(319,421,c),
(313,421,o),
(258,421,o),
(199,421,c),
(199,474,o),
(199,531,o),
(199,569,cs),
(199,625,o),
(209,649,o),
(234,658,c),
(234,612,o),
(268,591,o),
(297,591,cs),
(339,591,o),
(361,619,o),
(361,657,cs)
);
}
);
width = 300;
}
);
unicode = 102;
}
{
glyphname = g;
layers = (
{
hints = (
{
horizontal = 1;
place = (-198,71);
type = Stem;
},
{
horizontal = 1;
place = (-26,102);
type = Stem;
},
{
horizontal = 1;
place = (118,64);
type = Stem;
},
{
horizontal = 1;
place = (367,71);
type = Stem;
},
{
place = (30,116);
type = Stem;
},
{
place = (287,116);
type = Stem;
}
);
layerId = "C6EC6FDA-E503-47EF-96B2-9587BA9C0735";
shapes = (
{
closed = 1;
nodes = (
(476,423,o),
(451,438,o),
(422,438,c),
(384,439,o),
(358,415,o),
(344,395,c),
(314,421,o),
(270,438,o),
(215,438,cs),
(104,438,o),
(22,371,o),
(22,277,cs),
(22,225,o),
(51,183,o),
(93,155,c),
(66,104,o),
(46,66,o),
(10,-3,cs),
(4,-14,o),
(2,-16,o),
(5,-25,cs),
(8,-32,o),
(11,-33,o),
(29,-31,cs),
(50,-28,o),
(77,-26,o),
(94,-26,cs),
(111,-26,o),
(168,-26,o),
(196,-26,cs),
(279,-26,o),
(330,-37,o),
(330,-70,cs),
(330,-107,o),
(255,-128,o),
(202,-128,cs),
(182,-128,o),
(144,-120,o),
(139,-115,c),
(139,-75,o),
(118,-53,o),
(84,-53,cs),
(56,-53,o),
(27,-74,o),
(27,-115,cs),
(27,-161,o),
(85,-198,o),
(203,-198,cs),
(330,-198,o),
(432,-144,o),
(432,-53,cs),
(432,41,o),
(357,81,o),
(204,81,cs),
(173,81,o),
(142,79,o),
(122,76,c),
(146,130,l),
(168,123,o),
(191,118,o),
(214,118,cs),
(336,118,o),
(400,194,o),
(400,277,cs),
(400,306,o),
(392,337,o),
(373,362,c),
(377,365,o),
(389,365,o),
(398,357,cs),
(404,352,o),
(418,345,o),
(435,345,cs),
(453,345,o),
(476,361,o),
(476,389,cs)
);
},
{
closed = 1;
nodes = (
(284,228,o),
(258,182,o),
(218,182,cs),
(174,182,o),
(147,219,o),
(147,277,cs),
(147,324,o),
(168,366,o),
(215,366,cs),
(263,366,o),
(284,325,o),
(284,277,cs)
);
}
);
width = 458;
}
);
unicode = 103;
}
{
glyphname = h;
layers = (
{
hints = (
{
horizontal = 1;
place = (0,20);
type = Stem;
},
{
horizontal = 1;
place = (353,80);
type = Stem;
},
{
horizontal = 1;
place = (730,-20);
target = down;
type = TopGhost;
},
{
place = (67,128);
type = Stem;
},
{
place = (343,128);
type = Stem;
}
);
layerId = "C6EC6FDA-E503-47EF-96B2-9587BA9C0735";
shapes = (
{
closed = 1;
nodes = (
(509,0,l),
(509,0,o),
(509,22,o),
(509,32,cs),
(509,42,o),
(506,44,o),
(489,55,cs),
(467,69,o),
(467,72,o),
(467,103,cs),
(467,113,o),
(467,264,o),
(467,288,cs),
(467,376,o),
(416,433,o),
(326,433,cs),
(264,433,o),
(222,410,o),
(191,378,c),
(191,396,o),
(191,712,o),
(191,730,c),
(22,719,l),
(22,719,o),
(22,697,o),
(22,687,cs),
(22,676,o),
(25,675,o),
(42,664,cs),
(63,650,o),
(64,647,o),
(64,616,cs),
(64,593,o),
(64,141,o),
(64,103,cs),
(64,72,o),
(63,69,o),
(42,55,cs),
(25,43,o),
(22,42,o),
(22,32,cs),
(22,22,o),
(22,0,o),
(22,0,c),
(233,0,l),
(233,0,o),
(233,22,o),
(233,32,cs),
(233,42,o),
(230,44,o),
(213,55,cs),
(192,69,o),
(191,72,o),
(191,103,cs),
(191,113,o),
(191,218,o),
(191,300,c),
(211,331,o),
(242,348,o),
(272,348,cs),
(310,348,o),
(340,326,o),
(340,278,cs),
(340,257,o),
(340,141,o),
(340,103,cs),
(340,72,o),
(339,69,o),
(318,55,cs),
(301,44,o),
(298,42,o),
(298,32,cs),
(298,22,o),
(298,0,o),
(298,0,c)
);
}
);
width = 531;
}
);
unicode = 104;
}
{
glyphname = i;
layers = (
{
hints = (
{
horizontal = 1;
place = (0,20);
type = Stem;
},
{
horizontal = 1;
place = (552,159);
type = Stem;
},
{
place = (77,128);
type = Stem;
}
);
layerId = "C6EC6FDA-E503-47EF-96B2-9587BA9C0735";
shapes = (
{
closed = 1;
nodes = (
(212,676,o),
(178,711,o),
(135,711,cs),
(93,711,o),
(59,676,o),
(59,634,cs),
(59,591,o),
(93,557,o),
(135,557,cs),
(178,557,o),
(212,591,o),
(212,634,cs)
);
},
{
closed = 1;
nodes = (
(243,0,l),
(243,0,o),
(243,22,o),
(243,32,cs),
(243,42,o),
(240,44,o),
(223,55,cs),
(202,69,o),
(201,72,o),
(201,103,c),
(201,103,o),
(201,412,o),
(201,430,c),
(32,419,l),
(32,419,o),
(32,397,o),
(32,387,cs),
(32,378,o),
(34,375,o),
(51,364,cs),
(73,350,o),
(74,348,o),
(74,315,cs),
(74,292,o),
(74,141,o),
(74,103,cs),
(74,72,o),
(74,69,o),
(52,55,cs),
(35,44,o),
(32,42,o),
(32,32,cs),
(32,22,o),
(32,0,o),
(32,0,c)
);
}
);
width = 266;
}
);
unicode = 105;
}
{
glyphname = j;
layers = (
{
hints = (
{
horizontal = 1;
place = (-197,71);
type = Stem;
},
{
horizontal = 1;
place = (552,159);
type = Stem;
},
{
place = (76,128);
type = Stem;
}
);
layerId = "C6EC6FDA-E503-47EF-96B2-9587BA9C0735";
shapes = (
{
closed = 1;
nodes = (
(201,676,o),
(167,711,o),
(124,711,cs),
(82,711,o),
(48,676,o),
(48,634,cs),
(48,591,o),
(82,557,o),
(124,557,cs),
(167,557,o),
(201,591,o),
(201,634,cs)
);
},
{
closed = 1;
nodes = (
(200,37,o),
(200,412,o),
(200,430,c),
(28,419,l),
(28,419,o),
(28,397,o),
(28,387,cs),
(28,378,o),
(31,376,o),
(48,364,cs),
(70,349,o),
(72,348,o),
(72,315,cs),
(72,292,o),
(72,-28,o),
(72,-66,cs),
(72,-118,o),
(64,-129,o),
(41,-129,c),
(45,-97,o),
(30,-62,o),
(-13,-62,cs),
(-49,-62,o),
(-71,-92,o),
(-71,-123,cs),
(-71,-159,o),
(-42,-197,o),
(25,-197,cs),
(124,-197,o),
(200,-108,o),
(200,16,cs)
);
}
);
width = 256;
}
);
unicode = 106;
}
{
glyphname = k;
layers = (
{
hints = (
{
horizontal = 1;
place = (0,20);
type = Stem;
},
{
horizontal = 1;
place = (730,-20);
target = down;
type = TopGhost;
},
{
place = (67,128);
type = Stem;
},
{
place = (287,227);
type = Stem;
}
);
layerId = "C6EC6FDA-E503-47EF-96B2-9587BA9C0735";
shapes = (
{
closed = 1;
nodes = (
(528,0,l),
(528,0,o),
(528,31,o),
(528,41,cs),
(528,48,o),
(525,50,o),
(508,59,cs),
(477,76,o),
(469,84,o),
(447,116,cs),
(423,152,o),
(394,190,o),
(340,270,c),
(408,327,o),
(434,345,o),
(492,367,cs),
(511,374,o),
(512,379,o),
(512,389,cs),
(512,399,o),
(512,421,o),
(512,421,c),
(284,421,l),
(284,421,o),
(284,402,o),
(284,392,cs),
(284,383,o),
(286,380,o),
(303,370,cs),
(320,360,o),
(323,358,o),
(323,349,cs),
(323,343,o),
(317,335,o),
(304,325,cs),
(287,310,o),
(267,290,o),
(191,230,c),
(191,414,o),
(191,730,o),
(191,730,c),
(22,719,l),
(22,719,o),
(22,697,o),
(22,687,cs),
(22,676,o),
(25,675,o),
(42,664,cs),
(63,650,o),
(64,647,o),
(64,616,cs),
(64,593,o),
(64,141,o),
(64,103,cs),
(64,72,o),
(63,69,o),
(42,55,cs),
(25,43,o),
(22,42,o),
(22,32,cs),
(22,22,o),
(22,0,o),
(22,0,c),
(233,0,l),
(233,0,o),
(233,22,o),
(233,32,cs),
(233,42,o),
(230,43,o),
(213,55,cs),
(192,69,o),
(191,72,o),
(191,103,cs),
(191,105,o),
(191,123,o),
(191,153,c),
(242,192,l),
(264,162,o),
(273,148,o),
(305,101,cs),
(312,91,o),
(317,82,o),
(317,76,cs),
(317,68,o),
(311,61,o),
(299,54,c),
(284,43,o),
(281,42,o),
(281,32,cs),
(281,22,o),
(281,0,o),
(281,0,c)
);
}
);
width = 520;
}
);
unicode = 107;
}
{
glyphname = l;
layers = (
{
hints = (
{
horizontal = 1;
place = (0,20);
type = Stem;
},
{
horizontal = 1;
place = (730,-20);
target = down;
type = TopGhost;
},
{
place = (64,128);
type = Stem;
}
);
layerId = "C6EC6FDA-E503-47EF-96B2-9587BA9C0735";
shapes = (
{
closed = 1;
nodes = (
(233,0,l),
(233,0,o),
(233,22,o),
(233,32,cs),
(233,42,o),
(230,43,o),
(213,55,cs),
(192,69,o),
(191,72,o),
(191,103,cs),
(191,116,o),
(191,730,o),
(191,730,c),
(22,719,l),
(22,719,o),
(22,697,o),
(22,687,cs),
(22,676,o),
(25,675,o),
(42,664,cs),
(63,650,o),
(64,647,o),
(64,616,cs),
(64,593,o),
(64,141,o),
(64,103,cs),
(64,72,o),
(63,69,o),
(42,55,cs),
(25,43,o),
(22,42,o),
(22,32,cs),
(22,22,o),
(22,0,o),
(22,0,c)
);
}
);
width = 255;
}
);
unicode = 108;
}
{
glyphname = m;
layers = (
{
hints = (
{
horizontal = 1;
place = (0,20);
type = Stem;
},
{
horizontal = 1;
place = (353,80);
type = Stem;
},
{
place = (73,128);
type = Stem;
},
{
place = (338,128);
type = Stem;
},
{
place = (603,128);
type = Stem;
}
);
layerId = "C6EC6FDA-E503-47EF-96B2-9587BA9C0735";
shapes = (
{
closed = 1;
nodes = (
(772,0,l),
(772,0,o),
(772,22,o),
(772,32,cs),
(772,42,o),
(769,43,o),
(752,55,cs),
(731,69,o),
(730,72,o),
(730,103,cs),
(730,113,o),
(730,264,o),
(730,288,cs),
(730,376,o),
(673,433,o),
(584,433,cs),
(526,433,o),
(485,409,o),
(445,368,c),
(422,411,o),
(385,433,o),
(327,433,cs),
(261,433,o),
(221,400,o),
(194,371,c),
(194,389,o),
(194,412,o),
(194,430,c),
(31,419,l),
(31,419,o),
(31,396,o),
(31,386,cs),
(31,376,o),
(34,375,o),
(51,364,cs),
(72,350,o),
(73,347,o),
(73,315,cs),
(73,292,o),
(73,141,o),
(73,103,cs),
(73,72,o),
(72,69,o),
(51,55,cs),
(34,43,o),
(31,42,o),
(31,32,cs),
(31,22,o),
(31,0,o),
(31,0,c),
(241,0,l),
(241,0,o),
(241,22,o),
(241,32,cs),
(241,42,o),
(238,44,o),
(221,55,cs),
(199,69,o),
(200,72,o),
(200,103,cs),
(200,113,o),
(200,223,o),
(200,305,c),
(216,330,o),
(246,348,o),
(277,348,cs),
(315,348,o),
(338,321,o),
(338,271,cs),
(338,250,o),
(338,141,o),
(338,103,cs),
(338,72,o),
(338,69,o),
(317,55,cs),
(300,43,o),
(297,42,o),
(297,32,cs),
(297,22,o),
(297,0,o),
(297,0,c),
(506,0,l),
(506,0,o),
(506,22,o),
(506,32,cs),
(506,42,o),
(503,44,o),
(486,55,cs),
(464,69,o),
(465,72,o),
(465,103,cs),
(465,113,o),
(465,236,o),
(465,260,cs),
(465,270,o),
(465,295,o),
(465,309,c),
(479,333,o),
(509,348,o),
(534,348,cs),
(575,348,o),
(603,322,o),
(603,278,cs),
(603,257,o),
(603,141,o),
(603,103,cs),
(603,72,o),
(603,69,o),
(582,55,cs),
(565,43,o),
(562,42,o),
(562,32,cs),
(562,22,o),
(562,0,o),
(562,0,c)
);
}
);
width = 794;
}
);
unicode = 109;
}
{
glyphname = n;
layers = (
{
hints = (
{
horizontal = 1;
place = (0,20);
type = Stem;
},
{
horizontal = 1;
place = (345,88);
type = Stem;
},
{
place = (73,128);
type = Stem;
},
{
place = (349,128);
type = Stem;
}
);
layerId = "C6EC6FDA-E503-47EF-96B2-9587BA9C0735";
shapes = (
{
closed = 1;
nodes = (
(518,0,l),
(518,0,o),
(518,22,o),
(518,32,cs),
(518,42,o),
(515,44,o),
(498,55,cs),
(477,70,o),
(476,72,o),
(476,103,cs),
(476,113,o),
(476,264,o),
(476,288,cs),
(476,376,o),
(425,433,o),
(335,433,cs),
(273,433,o),
(225,406,o),
(194,375,c),
(194,393,o),
(194,412,o),
(194,430,c),
(31,419,l),
(31,419,o),
(31,396,o),
(31,386,cs),
(31,376,o),
(34,375,o),
(51,364,cs),
(72,350,o),
(73,347,o),
(73,315,cs),
(73,292,o),
(73,141,o),
(73,103,cs),
(73,72,o),
(72,69,o),
(51,55,cs),
(34,44,o),
(31,42,o),
(31,32,cs),
(31,22,o),
(31,0,o),
(31,0,c),
(242,0,l),
(242,0,o),
(242,22,o),
(242,32,cs),
(242,42,o),
(239,44,o),
(222,55,cs),
(201,70,o),
(200,72,o),
(200,103,cs),
(200,113,o),
(200,223,o),
(200,305,c),
(216,330,o),
(251,345,o),
(281,345,cs),
(319,345,o),
(349,326,o),
(349,278,cs),
(349,257,o),
(349,141,o),
(349,103,cs),
(349,72,o),
(348,69,o),
(327,55,cs),
(310,44,o),
(307,42,o),
(307,32,cs),
(307,22,o),
(307,0,o),
(307,0,c)
);
}
);
width = 540;
}
);
unicode = 110;
}
{
glyphname = o;
layers = (
{
hints = (
{
horizontal = 1;
place = (-9,80);
type = Stem;
},
{
horizontal = 1;
place = (358,80);
type = Stem;
},
{
place = (16,128);
type = Stem;
},
{
place = (339,128);
type = Stem;
}
);
layerId = "C6EC6FDA-E503-47EF-96B2-9587BA9C0735";
shapes = (
{
closed = 1;
nodes = (
(467,344,o),
(374,438,o),
(242,438,cs),
(109,438,o),
(16,344,o),
(16,214,cs),
(16,83,o),
(109,-9,o),
(242,-9,cs),
(374,-9,o),
(467,85,o),
(467,214,cs)
);
},
{
closed = 1;
nodes = (
(334,119,o),
(302,66,o),
(242,66,cs),
(181,66,o),
(149,119,o),
(149,214,cs),
(149,308,o),
(181,363,o),
(242,363,cs),
(302,363,o),
(334,308,o),
(334,214,cs)
);
}
);
width = 483;
}
);
unicode = 111;
}
{
glyphname = p;
layers = (
{
hints = (
{
horizontal = 1;
place = (-8,80);
type = Stem;
},
{
horizontal = 1;
place = (345,88);
type = Stem;
},
{
place = (67,128);
type = Stem;
},
{
place = (368,128);
type = Stem;
}
);
layerId = "C6EC6FDA-E503-47EF-96B2-9587BA9C0735";
shapes = (
{
closed = 1;
nodes = (
(493,350,o),
(410,433,o),
(308,433,cs),
(251,433,o),
(207,402,o),
(185,376,c),
(185,408,o),
(185,430,o),
(185,430,c),
(22,419,l),
(22,419,o),
(22,396,o),
(22,386,cs),
(22,376,o),
(25,375,o),
(42,364,cs),
(63,350,o),
(64,347,o),
(64,315,cs),
(64,292,o),
(64,-50,o),
(64,-87,cs),
(64,-118,o),
(63,-121,o),
(42,-135,cs),
(25,-147,o),
(22,-148,o),
(22,-158,cs),
(22,-168,o),
(22,-190,o),
(22,-190,c),
(234,-190,l),
(234,-190,o),
(234,-168,o),
(234,-158,cs),
(234,-148,o),
(231,-147,o),
(214,-135,cs),
(193,-121,o),
(191,-118,o),
(191,-87,cs),
(191,-83,o),
(191,-31,o),
(191,31,c),
(214,13,o),
(249,-8,o),
(302,-8,cs),
(417,-8,o),
(493,101,o),
(493,218,cs)
);
},
{
closed = 1;
nodes = (
(362,108,o),
(322,67,o),
(270,67,cs),
(235,67,o),
(209,82,o),
(191,101,c),
(191,176,o),
(191,224,o),
(191,301,c),
(205,322,o),
(236,345,o),
(272,345,cs),
(321,345,o),
(362,299,o),
(362,216,cs)
);
}
);
width = 509;
}
);
unicode = 112;
}
{
glyphname = q;
layers = (
{
hints = (
{
horizontal = 1;
place = (0,71);
type = Stem;
},
{
horizontal = 1;
place = (367,71);
type = Stem;
},
{
place = (19,128);
type = Stem;
},
{
place = (319,128);
type = Stem;
}
);
layerId = "C6EC6FDA-E503-47EF-96B2-9587BA9C0735";
shapes = (
{
closed = 1;
nodes = (
(485,-190,l),
(485,-190,o),
(485,-168,o),
(485,-158,cs),
(485,-148,o),
(481,-146,o),
(465,-135,cs),
(444,-120,o),
(443,-118,o),
(443,-87,cs),
(443,79,o),
(443,430,o),
(443,430,c),
(430,439,l),
(430,439,o),
(396,406,o),
(384,395,cs),
(372,384,o),
(370,384,o),
(355,394,cs),
(314,422,o),
(284,438,o),
(216,438,cs),
(115,438,o),
(16,350,o),
(16,218,cs),
(16,101,o),
(93,0,o),
(207,0,cs),
(261,0,o),
(292,22,o),
(316,40,c),
(316,-22,o),
(316,-83,o),
(316,-87,cs),
(316,-118,o),
(315,-121,o),
(293,-135,cs),
(276,-146,o),
(273,-148,o),
(273,-158,cs),
(273,-168,o),
(273,-190,o),
(273,-190,c)
);
},
{
closed = 1;
nodes = (
(298,86,o),
(271,73,o),
(242,73,cs),
(194,73,o),
(147,112,o),
(147,219,cs),
(147,325,o),
(196,367,o),
(249,367,cs),
(279,367,o),
(304,356,o),
(316,340,c),
(316,263,o),
(316,182,o),
(316,107,c)
);
}
);
width = 499;
}
);
unicode = 113;
}
{
glyphname = r;
layers = (
{
hints = (
{
horizontal = 1;
place = (0,20);
type = Stem;
},
{
horizontal = 1;
place = (331,102);
type = Stem;
},
{
place = (76,128);
type = Stem;
}
);
layerId = "C6EC6FDA-E503-47EF-96B2-9587BA9C0735";
shapes = (
{
closed = 1;
nodes = (
(388,396,o),
(364,433,o),
(310,433,cs),
(261,433,o),
(222,394,o),
(194,345,c),
(194,363,o),
(194,412,o),
(194,430,c),
(31,419,l),
(31,419,o),
(31,396,o),
(31,386,cs),
(31,377,o),
(32,376,o),
(51,364,cs),
(72,350,o),
(73,347,o),
(73,315,cs),
(73,292,o),
(73,141,o),
(73,103,cs),
(73,72,o),
(72,69,o),
(51,55,cs),
(34,43,o),
(31,42,o),
(31,32,cs),
(31,22,o),
(31,0,o),
(31,0,c),
(243,0,l),
(243,0,o),
(243,22,o),
(243,32,cs),
(243,42,o),
(240,44,o),
(223,55,cs),
(201,69,o),
(200,72,o),
(200,103,cs),
(200,113,o),
(200,169,o),
(200,212,cs),
(200,280,o),
(236,327,o),
(264,327,c),
(272,308,o),
(296,289,o),
(321,289,cs),
(366,289,o),
(388,324,o),
(388,361,cs)
);
}
);
width = 379;
}
);
unicode = 114;
}
{
glyphname = s;
layers = (
{
hints = (
{
horizontal = 1;
place = (-9,71);
type = Stem;
},
{
horizontal = 1;
place = (370,64);
type = Stem;
},
{
place = (13,116);
type = Stem;
},
{
place = (208,116);
type = Stem;
}
);
layerId = "C6EC6FDA-E503-47EF-96B2-9587BA9C0735";
shapes = (
{
closed = 1;
nodes = (
(345,197,o),
(312,238,o),
(226,269,cs),
(141,300,o),
(126,312,o),
(126,337,cs),
(126,358,o),
(151,371,o),
(177,371,cs),
(191,371,o),
(206,366,o),
(211,361,c),
(210,356,o),
(209,352,o),
(209,347,cs),
(209,319,o),
(231,296,o),
(265,296,cs),
(295,296,o),
(321,316,o),
(321,354,cs),
(321,394,o),
(272,434,o),
(181,434,cs),
(99,434,o),
(30,378,o),
(30,306,cs),
(30,251,o),
(60,201,o),
(146,171,cs),
(210,148,o),
(249,133,o),
(249,103,cs),
(249,75,o),
(220,58,o),
(179,58,cs),
(161,58,o),
(143,59,o),
(125,72,c),
(127,76,o),
(130,83,o),
(130,93,cs),
(130,117,o),
(117,153,o),
(70,153,cs),
(33,153,o),
(10,121,o),
(10,90,cs),
(10,38,o),
(76,-9,o),
(173,-9,cs),
(287,-9,o),
(345,65,o),
(345,131,cs)
);
}
);
width = 356;
}
);
unicode = 115;
}
{
glyphname = t;
layers = (
{
hints = (
{
horizontal = 1;
place = (-9,20);
type = Stem;
},
{
horizontal = 1;
place = (350,71);
type = Stem;
},
{
place = (67,128);
type = Stem;
}
);
layerId = "C6EC6FDA-E503-47EF-96B2-9587BA9C0735";
shapes = (
{
closed = 1;
nodes = (
(287,86,l),
(234,58,o),
(191,76,o),
(191,121,cs),
(191,180,o),
(191,340,o),
(191,349,c),
(249,349,o),
(280,349,o),
(289,349,c),
(289,358,o),
(289,406,o),
(289,421,c),
(283,421,o),
(250,421,o),
(191,421,c),
(191,469,o),
(191,521,o),
(191,558,cs),
(191,565,o),
(191,568,o),
(184,568,c),
(155,564,o),
(118,560,o),
(79,554,cs),
(71,553,o),
(70,547,o),
(70,542,cs),
(70,508,o),
(70,465,o),
(70,455,cs),
(70,434,o),
(65,424,o),
(49,415,cs),
(25,401,o),
(23,398,o),
(23,391,cs),
(23,375,o),
(23,355,o),
(23,349,c),
(29,349,o),
(45,349,o),
(64,349,c),
(64,254,o),
(64,145,o),
(64,120,cs),
(64,49,o),
(97,-9,o),
(188,-9,cs),
(246,-9,o),
(290,15,o),
(304,31,c)
);
}
);
width = 300;
}
);
unicode = 116;
}
{
glyphname = u;
layers = (
{
hints = (
{
horizontal = 1;
place = (-9,80);
type = Stem;
},
{
horizontal = 1;
place = (430,-20);
target = down;
type = TopGhost;
},
{
place = (66,128);
type = Stem;
},
{
place = (339,128);
type = Stem;
}
);
layerId = "C6EC6FDA-E503-47EF-96B2-9587BA9C0735";
shapes = (
{
closed = 1;
nodes = (
(506,0,l),
(506,0,o),
(506,22,o),
(506,32,cs),
(506,42,o),
(503,44,o),
(486,55,cs),
(465,70,o),
(464,72,o),
(464,103,cs),
(464,176,o),
(464,412,o),
(464,430,c),
(294,419,l),
(294,419,o),
(294,396,o),
(294,386,cs),
(294,376,o),
(296,375,o),
(313,364,cs),
(334,351,o),
(337,345,o),
(337,324,cs),
(337,314,o),
(337,161,o),
(337,117,c),
(320,93,o),
(289,75,o),
(259,75,cs),
(221,75,o),
(191,98,o),
(191,146,cs),
(191,213,o),
(191,412,o),
(191,430,c),
(22,419,l),
(22,419,o),
(22,396,o),
(22,386,cs),
(22,376,o),
(25,375,o),
(41,364,cs),
(63,350,o),
(64,347,o),
(64,315,cs),
(64,292,o),
(64,170,o),
(64,146,cs),
(64,58,o),
(115,-9,o),
(205,-9,cs),
(274,-9,o),
(314,20,o),
(345,52,c),
(345,33,o),
(345,18,o),
(345,0,c)
);
}
);
width = 527;
}
);
unicode = 117;
}
{
glyphname = v;
layers = (
{
hints = (
{
horizontal = 1;
place = (-7,20);
type = Stem;
},
{
horizontal = 1;
place = (421,-20);
target = down;
type = TopGhost;
},
{
place = (2,227);
type = Stem;
},
{
place = (290,182);
type = Stem;
}
);
layerId = "C6EC6FDA-E503-47EF-96B2-9587BA9C0735";
shapes = (
{
closed = 1;
nodes = (
(470,394,o),
(470,421,o),
(470,421,c),
(291,421,l),
(291,421,o),
(291,397,o),
(291,390,cs),
(291,382,o),
(297,376,o),
(309,369,cs),
(331,357,o),
(340,350,o),
(340,337,cs),
(340,328,o),
(338,317,o),
(331,301,cs),
(265,142,l),
(190,320,ls),
(188,326,o),
(186,332,o),
(186,338,cs),
(186,349,o),
(191,359,o),
(205,367,cs),
(224,378,o),
(227,384,o),
(227,393,cs),
(227,399,o),
(228,421,o),
(228,421,c),
(-1,421,l),
(-1,421,o),
(-1,388,o),
(-1,382,cs),
(-1,374,o),
(-1,371,o),
(13,364,cs),
(32,353,o),
(42,346,o),
(50,329,cs),
(197,-1,ls),
(199,-6,o),
(202,-7,o),
(209,-7,cs),
(212,-7,o),
(260,-7,o),
(266,-7,cs),
(272,-7,o),
(273,-6,o),
(275,-1,cs),
(403,298,ls),
(419,336,o),
(420,351,o),
(458,369,cs),
(469,374,o),
(470,378,o),
(470,388,cs)
);
}
);
width = 466;
}
);
unicode = 118;
}
{
glyphname = w;
layers = (
{
hints = (
{
horizontal = 1;
place = (-7,20);
type = Stem;
},
{
horizontal = 1;
place = (421,-20);
target = down;
type = TopGhost;
},
{
place = (2,227);
type = Stem;
},
{
place = (515,182);
type = Stem;
}
);
layerId = "C6EC6FDA-E503-47EF-96B2-9587BA9C0735";
shapes = (
{
closed = 1;
nodes = (
(694,394,o),
(694,421,o),
(694,421,c),
(515,421,l),
(515,421,o),
(515,397,o),
(515,390,cs),
(515,382,o),
(520,375,o),
(533,368,cs),
(555,356,o),
(564,348,o),
(564,334,cs),
(564,326,o),
(561,315,o),
(556,301,cs),
(501,143,l),
(403,421,l),
(343,421,l),
(248,142,l),
(188,320,ls),
(186,326,o),
(185,331,o),
(185,337,cs),
(185,348,o),
(190,359,o),
(203,367,cs),
(222,378,o),
(226,382,o),
(226,391,cs),
(226,397,o),
(226,421,o),
(226,421,c),
(-1,421,l),
(-1,421,o),
(-1,388,o),
(-1,382,cs),
(-1,374,o),
(-1,371,o),
(13,364,cs),
(32,353,o),
(43,346,o),
(50,329,cs),
(182,-1,ls),
(184,-6,o),
(187,-7,o),
(194,-7,cs),
(197,-7,o),
(245,-7,o),
(251,-7,cs),
(257,-7,o),
(258,-6,o),
(260,-1,cs),
(346,250,l),
(434,-1,ls),
(436,-6,o),
(439,-7,o),
(446,-7,cs),
(449,-7,o),
(498,-7,o),
(504,-7,cs),
(510,-7,o),
(511,-6,o),
(513,-1,cs),
(628,298,ls),
(644,341,o),
(648,353,o),
(682,369,cs),
(693,374,o),
(694,378,o),
(694,388,cs)
);
}
);
width = 691;
}
);
unicode = 119;
}
{
glyphname = x;
layers = (
{
hints = (
{
horizontal = 1;
place = (0,20);
type = Stem;
},
{
horizontal = 1;
place = (421,-20);
target = down;
type = TopGhost;
},
{
place = (6,190);
type = Stem;
},
{
place = (307,169);
type = Stem;
}
);
layerId = "C6EC6FDA-E503-47EF-96B2-9587BA9C0735";
shapes = (
{
closed = 1;
nodes = (
(489,0,l),
(489,0,o),
(489,24,o),
(489,30,cs),
(489,38,o),
(486,46,o),
(474,54,cs),
(445,74,o),
(436,80,o),
(419,100,cs),
(309,229,l),
(382,306,ls),
(413,339,o),
(419,346,o),
(460,372,cs),
(474,381,o),
(479,386,o),
(479,396,cs),
(479,402,o),
(479,421,o),
(479,421,c),
(305,421,l),
(305,421,o),
(305,397,o),
(305,390,cs),
(305,382,o),
(315,376,o),
(326,369,cs),
(331,366,o),
(333,362,o),
(333,357,cs),
(333,350,o),
(328,341,o),
(316,328,cs),
(268,276,l),
(223,331,ls),
(213,343,o),
(207,351,o),
(207,356,cs),
(207,361,o),
(211,365,o),
(216,369,cs),
(225,376,o),
(231,382,o),
(231,391,cs),
(231,397,o),
(231,421,o),
(231,421,c),
(10,421,l),
(10,421,o),
(10,401,o),
(10,395,cs),
(10,388,o),
(14,383,o),
(26,373,cs),
(42,359,o),
(55,349,o),
(71,330,cs),
(181,204,l),
(104,121,ls),
(78,92,o),
(69,80,o),
(28,59,cs),
(8,49,o),
(3,42,o),
(3,33,cs),
(3,27,o),
(3,0,o),
(3,0,c),
(188,0,l),
(188,0,o),
(188,25,o),
(188,32,cs),
(188,42,o),
(186,42,o),
(167,56,cs),
(158,62,o),
(154,64,o),
(154,72,cs),
(154,78,o),
(160,89,o),
(169,99,cs),
(222,157,l),
(270,100,ls),
(280,89,o),
(285,81,o),
(285,73,cs),
(285,65,o),
(278,57,o),
(270,51,cs),
(261,44,o),
(255,38,o),
(255,29,cs),
(255,23,o),
(255,0,o),
(255,0,c)
);
}
);
width = 490;
}
);
unicode = 120;
}
{
glyphname = y;
layers = (
{
hints = (
{
horizontal = 1;
place = (-199,80);
type = Stem;
},
{
horizontal = 1;
place = (421,-20);
target = down;
type = TopGhost;
},
{
place = (3,116);
type = Stem;
},
{
place = (292,182);
type = Stem;
}
);
layerId = "C6EC6FDA-E503-47EF-96B2-9587BA9C0735";
shapes = (
{
closed = 1;
nodes = (
(472,395,o),
(472,421,o),
(472,421,c),
(288,421,l),
(288,421,o),
(288,391,o),
(288,384,cs),
(288,376,o),
(296,370,o),
(307,363,cs),
(329,350,o),
(341,343,o),
(341,332,cs),
(341,324,o),
(338,314,o),
(332,298,cs),
(264,130,l),
(190,322,ls),
(187,329,o),
(186,334,o),
(186,339,cs),
(186,347,o),
(191,353,o),
(205,361,cs),
(224,372,o),
(227,378,o),
(227,387,cs),
(227,393,o),
(227,421,o),
(227,421,c),
(-1,421,l),
(-1,421,o),
(-1,389,o),
(-1,383,cs),
(-1,375,o),
(-1,372,o),
(13,365,cs),
(32,354,o),
(44,351,o),
(53,330,cs),
(200,-20,l),
(176,-83,o),
(147,-116,o),
(116,-116,c),
(116,-89,o),
(95,-65,o),
(63,-65,cs),
(29,-65,o),
(2,-88,o),
(2,-130,cs),
(2,-167,o),
(32,-199,o),
(88,-199,cs),
(140,-199,o),
(211,-160,o),
(267,-28,cs),
(404,295,ls),
(418,329,o),
(428,355,o),
(460,370,cs),
(471,375,o),
(472,379,o),
(472,389,cs)
);
}
);
width = 470;
}
);
unicode = 121;
}
{
glyphname = z;
layers = (
{
hints = (
{
horizontal = 1;
place = (-1,80);
type = Stem;
},
{
horizontal = 1;
place = (350,71);
type = Stem;
},
{
place = (41,211);
type = Stem;
}
);
layerId = "C6EC6FDA-E503-47EF-96B2-9587BA9C0735";
shapes = (
{
closed = 1;
nodes = (
(413,14,o),
(413,130,o),
(413,153,c),
(408,153,o),
(378,153,o),
(374,153,cs),
(364,153,o),
(361,150,o),
(354,135,cs),
(335,92,o),
(315,74,o),
(274,74,cs),
(256,74,o),
(184,74,o),
(184,74,c),
(393,343,ls),
(402,354,o),
(404,359,o),
(404,368,cs),
(404,376,o),
(404,421,o),
(404,421,c),
(404,421,o),
(146,421,o),
(108,421,cs),
(95,421,o),
(64,422,o),
(53,424,c),
(40,425,o),
(38,425,o),
(38,416,cs),
(38,395,o),
(38,294,o),
(38,284,c),
(46,284,o),
(62,284,o),
(69,284,cs),
(81,284,o),
(89,289,o),
(91,295,cs),
(111,346,o),
(121,347,o),
(188,347,cs),
(198,347,o),
(248,347,o),
(248,347,c),
(25,61,ls),
(17,51,o),
(13,43,o),
(13,31,cs),
(13,12,o),
(13,0,o),
(13,0,c),
(13,0,o),
(308,0,o),
(343,0,cs),
(356,0,o),
(384,-1,o),
(394,-1,cs),
(411,-1,o),
(413,-1,o),
(413,8,cs)
);
}
);
width = 427;
}
);
unicode = 122;
}
{
glyphname = braceleft;
layers = (
{
hints = (
{
horizontal = 1;
place = (733,-20);
target = down;
type = TopGhost;
},
{
place = (112,116);
type = Stem;
}
);
layerId = "C6EC6FDA-E503-47EF-96B2-9587BA9C0735";
shapes = (
{
closed = 1;
nodes = (
(347,-156,l),
(249,-134,o),
(229,-109,o),
(229,-27,cs),
(229,19,o),
(235,71,o),
(235,104,cs),
(235,198,o),
(167,241,o),
(80,268,c),
(167,295,o),
(235,338,o),
(235,432,cs),
(235,465,o),
(229,517,o),
(229,563,cs),
(229,645,o),
(249,670,o),
(347,691,c),
(347,733,l),
(211,731,o),
(109,667,o),
(109,546,cs),
(109,505,o),
(118,447,o),
(118,409,cs),
(118,326,o),
(89,305,o),
(16,291,c),
(16,245,l),
(89,231,o),
(118,210,o),
(118,126,cs),
(118,89,o),
(109,30,o),
(109,-10,cs),
(109,-131,o),
(211,-195,o),
(347,-197,c)
);
}
);
width = 370;
}
);
unicode = 123;
}
{
glyphname = bar;
layers = (
{
hints = (
{
horizontal = 1;
place = (730,-20);
target = down;
type = TopGhost;
},
{
place = (0,84);
type = Stem;
}
);
layerId = "C6EC6FDA-E503-47EF-96B2-9587BA9C0735";
shapes = (
{
closed = 1;
nodes = (
(85,730,l),
(0,730,l),
(0,-190,l),
(85,-190,l)
);
}
);
width = 85;
}
);
unicode = 124;
}
{
glyphname = braceright;
layers = (
{
hints = (
{
horizontal = 1;
place = (733,-20);
target = down;
type = TopGhost;
},
{
place = (148,116);
type = Stem;
}
);
layerId = "C6EC6FDA-E503-47EF-96B2-9587BA9C0735";
shapes = (
{
closed = 1;
nodes = (
(354,291,l),
(281,305,o),
(252,326,o),
(252,409,cs),
(252,447,o),
(261,505,o),
(261,546,cs),
(261,667,o),
(159,731,o),
(23,733,c),
(23,691,l),
(121,670,o),
(141,645,o),
(141,563,cs),
(141,517,o),
(135,465,o),
(135,432,cs),
(135,338,o),
(203,295,o),
(290,268,c),
(203,241,o),
(135,198,o),
(135,104,cs),
(135,71,o),
(141,19,o),
(141,-27,cs),
(141,-109,o),
(121,-134,o),
(23,-156,c),
(23,-197,l),
(159,-195,o),
(261,-131,o),
(261,-10,cs),
(261,30,o),
(252,89,o),
(252,126,cs),
(252,210,o),
(281,231,o),
(354,245,c)
);
}
);
width = 370;
}
);
unicode = 125;
}
{
glyphname = asciitilde;
layers = (
{
hints = (
{
horizontal = 1;
place = (195,102);
type = Stem;
},
{
horizontal = 1;
place = (297,102);
type = Stem;
}
);
layerId = "C6EC6FDA-E503-47EF-96B2-9587BA9C0735";
shapes = (
{
closed = 1;
nodes = (
(576,413,l),
(568,354,o),
(549,297,o),
(496,297,cs),
(464,297,o),
(436,322,o),
(392,353,cs),
(346,385,o),
(326,399,o),
(275,399,cs),
(177,399,o),
(110,307,o),
(103,183,c),
(164,183,l),
(172,241,o),
(191,299,o),
(244,299,cs),
(280,299,o),
(308,277,o),
(351,246,cs),
(404,208,o),
(425,195,o),
(465,195,cs),
(565,195,o),
(630,288,o),
(637,413,c)
);
}
);
width = 740;
}
);
unicode = 126;
}
{
glyphname = exclamdown;
layers = (
{
hints = (
{
horizontal = 1;
place = (394,159);
type = Stem;
},
{
place = (113,102);
type = Stem;
}
);
layerId = "C6EC6FDA-E503-47EF-96B2-9587BA9C0735";
shapes = (
{
closed = 1;
nodes = (
(215,517,o),
(179,553,o),
(135,553,cs),
(92,553,o),
(56,517,o),
(56,473,cs),
(56,430,o),
(92,394,o),
(135,394,cs),
(179,394,o),
(215,430,o),
(215,473,cs)
);
},
{
closed = 1;
nodes = (
(212,-41,o),
(186,37,o),
(175,130,cs),
(166,205,o),
(162,225,o),
(160,321,c),
(160,327,o),
(149,331,o),
(135,331,cs),
(120,331,o),
(110,327,o),
(110,321,c),
(106,223,o),
(104,205,o),
(95,130,cs),
(84,37,o),
(58,-41,o),
(58,-97,cs),
(58,-149,o),
(76,-198,o),
(134,-198,cs),
(194,-198,o),
(212,-149,o),
(212,-97,cs)
);
}
);
width = 270;
}
);
unicode = 161;
}
{
glyphname = sterling;
layers = (
{
hints = (
{
horizontal = 1;
place = (-9,71);
type = Stem;
},
{
horizontal = 1;
place = (150,56);
type = Stem;
},
{
horizontal = 1;
place = (307,56);
type = Stem;
},
{
horizontal = 1;
place = (623,71);
type = Stem;
},
{
place = (9,60);
type = Stem;
},
{
place = (99,128);
type = Stem;
},
{
place = (368,140);
type = Stem;
}
);
layerId = "C6EC6FDA-E503-47EF-96B2-9587BA9C0735";
shapes = (
{
closed = 1;
nodes = (
(502,143,l),
(470,126,o),
(435,115,o),
(403,115,cs),
(368,115,o),
(342,123,o),
(282,152,c),
(290,180,o),
(295,213,o),
(295,240,cs),
(295,260,o),
(292,279,o),
(285,307,c),
(425,307,l),
(425,360,l),
(268,360,l),
(249,412,o),
(230,456,o),
(230,498,cs),
(230,571,o),
(266,623,o),
(336,623,cs),
(355,623,o),
(372,617,o),
(389,606,c),
(374,588,o),
(364,568,o),
(364,544,cs),
(364,505,o),
(394,480,o),
(429,480,cs),
(471,480,o),
(505,504,o),
(505,562,cs),
(505,634,o),
(430,694,o),
(328,694,cs),
(191,694,o),
(96,590,o),
(96,487,cs),
(96,445,o),
(106,404,o),
(122,360,c),
(39,360,l),
(39,307,l),
(147,307,l),
(175,258,o),
(184,232,o),
(192,192,c),
(157,207,o),
(136,209,o),
(115,209,cs),
(63,209,o),
(6,170,o),
(6,97,cs),
(6,29,o),
(63,-9,o),
(114,-9,cs),
(173,-9,o),
(213,19,o),
(246,69,c),
(304,16,o),
(342,-8,o),
(388,-8,cs),
(450,-8,o),
(501,33,o),
(535,86,c)
);
},
{
closed = 1;
nodes = (
(173,82,o),
(152,58,o),
(117,58,cs),
(83,58,o),
(66,80,o),
(66,104,cs),
(66,130,o),
(85,150,o),
(113,150,cs),
(139,150,o),
(158,138,o),
(186,114,c)
);
}
);
width = 546;
}
);
unicode = 163;
}
{
glyphname = degree;
layers = (
{
hints = (
{
horizontal = 1;
place = (442,58);
type = Stem;
},
{
horizontal = 1;
place = (671,58);
type = Stem;
},
{
place = (40,74);
type = Stem;
},
{
place = (256,74);
type = Stem;
}
);
layerId = "C6EC6FDA-E503-47EF-96B2-9587BA9C0735";
shapes = (
{
closed = 1;
nodes = (
(327,676,o),
(262,740,o),
(182,740,cs),
(102,740,o),
(37,676,o),
(37,596,cs),
(37,516,o),
(102,452,o),
(182,452,cs),
(262,452,o),
(327,516,o),
(327,596,cs)
);
},
{
closed = 1;
nodes = (
(258,552,o),
(228,514,o),
(182,514,cs),
(136,514,o),
(106,552,o),
(106,596,cs),
(106,640,o),
(136,678,o),
(182,678,cs),
(228,678,o),
(258,640,o),
(258,596,cs)
);
}
);
width = 361;
}
);
unicode = 176;
}
{
glyphname = plusminus;
layers = (
{
hints = (
{
horizontal = 1;
place = (340,73);
type = Stem;
},
{
place = (341,69);
type = Stem;
}
);
layerId = "C6EC6FDA-E503-47EF-96B2-9587BA9C0735";
shapes = (
{
closed = 1;
nodes = (
(638,437,l),
(413,437,l),
(413,652,l),
(328,652,l),
(328,437,l),
(103,437,l),
(103,352,l),
(328,352,l),
(328,137,l),
(413,137,l),
(413,352,l),
(638,352,l)
);
},
{
closed = 1;
nodes = (
(638,85,l),
(103,85,l),
(103,0,l),
(638,0,l)
);
}
);
width = 740;
}
);
unicode = 177;
}
{
glyphname = periodcentered;
layers = (
{
hints = (
{
horizontal = 1;
place = (274,138);
type = Stem;
},
{
place = (46,137);
type = Stem;
}
);
layerId = "C6EC6FDA-E503-47EF-96B2-9587BA9C0735";
shapes = (
{
closed = 1;
nodes = (
(207,387,o),
(171,423,o),
(128,423,cs),
(84,423,o),
(48,387,o),
(48,344,cs),
(48,300,o),
(84,264,o),
(128,264,cs),
(171,264,o),
(207,300,o),
(207,344,cs)
);
}
);
width = 255;
}
);
unicode = 183;
}
{
glyphname = questiondown;
layers = (
{
hints = (
{
horizontal = 1;
place = (-197,71);
type = Stem;
},
{
horizontal = 1;
place = (394,159);
type = Stem;
},
{
place = (36,128);
type = Stem;
},
{
place = (212,50);
type = Stem;
},
{
place = (264,140);
type = Stem;
}
);
layerId = "C6EC6FDA-E503-47EF-96B2-9587BA9C0735";
shapes = (
{
closed = 1;
nodes = (
(316,517,o),
(280,553,o),
(236,553,cs),
(193,553,o),
(157,517,o),
(157,473,cs),
(157,430,o),
(193,394,o),
(236,394,cs),
(280,394,o),
(316,430,o),
(316,473,cs)
);
},
{
closed = 1;
nodes = (
(397,-28,o),
(372,6,o),
(326,6,cs),
(292,6,o),
(260,-17,o),
(260,-65,cs),
(260,-80,o),
(267,-93,o),
(278,-112,c),
(266,-120,o),
(250,-127,o),
(231,-127,cs),
(193,-127,o),
(165,-104,o),
(165,-35,cs),
(165,12,o),
(178,42,o),
(215,113,cs),
(257,195,o),
(261,226,o),
(261,321,cs),
(261,327,o),
(249,330,o),
(235,330,cs),
(220,330,o),
(209,327,o),
(209,321,cs),
(209,230,o),
(184,208,o),
(116,123,cs),
(68,63,o),
(33,22,o),
(33,-43,cs),
(33,-132,o),
(106,-197,o),
(215,-197,cs),
(339,-197,o),
(397,-126,o),
(397,-68,cs)
);
}
);
width = 430;
}
);
unicode = 191;
}
{
glyphname = multiply;
layers = (
{
layerId = "C6EC6FDA-E503-47EF-96B2-9587BA9C0735";
shapes = (
{
closed = 1;
nodes = (
(427,293,l),
(619,483,l),
(560,542,l),
(370,350,l),
(180,542,l),
(121,483,l),
(313,293,l),
(121,103,l),
(180,44,l),
(370,236,l),
(560,44,l),
(619,103,l)
);
}
);
width = 740;
}
);
unicode = 215;
}
{
glyphname = divide;
layers = (
{
hints = (
{
horizontal = 1;
place = (31,127);
type = Stem;
},
{
horizontal = 1;
place = (250,80);
type = Stem;
},
{
horizontal = 1;
place = (427,127);
type = Stem;
},
{
place = (306,128);
type = Stem;
}
);
layerId = "C6EC6FDA-E503-47EF-96B2-9587BA9C0735";
shapes = (
{
closed = 1;
nodes = (
(435,525,o),
(406,554,o),
(371,554,cs),
(335,554,o),
(306,525,o),
(306,490,cs),
(306,454,o),
(335,425,o),
(371,425,cs),
(406,425,o),
(435,454,o),
(435,490,cs)
);
},
{
closed = 1;
nodes = (
(638,335,l),
(103,335,l),
(103,250,l),
(638,250,l)
);
},
{
closed = 1;
nodes = (
(435,131,o),
(406,160,o),
(371,160,cs),
(335,160,o),
(306,131,o),
(306,96,cs),
(306,60,o),
(335,31,o),
(371,31,cs),
(406,31,o),
(435,60,o),
(435,96,cs)
);
}
);
width = 740;
}
);
unicode = 247;
}
{
glyphname = tilde;
layers = (
{
hints = (
{
horizontal = 1;
place = (546,80);
type = Stem;
}
);
layerId = "C6EC6FDA-E503-47EF-96B2-9587BA9C0735";
shapes = (
{
closed = 1;
nodes = (
(325,629,l),
(321,600,o),
(300,580,o),
(275,580,cs),
(256,580,o),
(242,586,o),
(215,603,cs),
(188,620,o),
(173,626,o),
(141,626,cs),
(84,626,o),
(41,570,o),
(37,497,c),
(80,497,l),
(84,526,o),
(105,546,o),
(129,546,cs),
(150,546,o),
(163,541,o),
(188,525,cs),
(220,505,o),
(239,500,o),
(263,500,cs),
(319,500,o),
(363,556,o),
(368,629,c)
);
}
);
width = 404;
}
);
unicode = 732;
}
{
glyphname = endash;
layers = (
{
hints = (
{
horizontal = 1;
place = (174,80);
type = Stem;
}
);
layerId = "C6EC6FDA-E503-47EF-96B2-9587BA9C0735";
shapes = (
{
closed = 1;
nodes = (
(469,259,l),
(36,259,l),
(36,174,l),
(469,174,l)
);
}
);
width = 505;
}
);
unicode = 8211;
}
{
glyphname = emdash;
layers = (
{
hints = (
{
horizontal = 1;
place = (174,80);
type = Stem;
}
);
layerId = "C6EC6FDA-E503-47EF-96B2-9587BA9C0735";
shapes = (
{
closed = 1;
nodes = (
(1044,259,l),
(36,259,l),
(36,174,l),
(1044,174,l)
);
}
);
width = 1080;
}
);
unicode = 8212;
}
{
glyphname = quoteleft;
layers = (
{
hints = (
{
place = (56,154);
type = Stem;
}
);
layerId = "C6EC6FDA-E503-47EF-96B2-9587BA9C0735";
shapes = (
{
closed = 1;
nodes = (
(195,740,l),
(119,695,o),
(53,620,o),
(53,524,cs),
(53,464,o),
(85,428,o),
(133,428,cs),
(171,428,o),
(209,461,o),
(209,507,cs),
(209,562,o),
(161,577,o),
(139,584,c),
(143,606,o),
(162,658,o),
(220,706,c)
);
}
);
width = 264;
}
);
unicode = 8216;
}
{
glyphname = quoteright;
layers = (
{
hints = (
{
place = (60,154);
type = Stem;
}
);
layerId = "C6EC6FDA-E503-47EF-96B2-9587BA9C0735";
shapes = (
{
closed = 1;
nodes = (
(211,704,o),
(179,740,o),
(131,740,cs),
(93,740,o),
(55,707,o),
(55,661,cs),
(55,606,o),
(103,591,o),
(125,584,c),
(121,562,o),
(102,510,o),
(44,462,c),
(69,428,l),
(145,473,o),
(211,548,o),
(211,644,cs)
);
}
);
width = 264;
}
);
unicode = 8217;
}
{
glyphname = quotesinglbase;
layers = (
{
hints = (
{
horizontal = 1;
place = (740,-20);
target = down;
type = TopGhost;
},
{
place = (58,137);
type = Stem;
}
);
layerId = "C6EC6FDA-E503-47EF-96B2-9587BA9C0735";
shapes = (
{
closed = 1;
nodes = (
(211,113,o),
(179,149,o),
(131,149,cs),
(93,149,o),
(55,116,o),
(55,70,cs),
(55,15,o),
(103,0,o),
(125,-7,c),
(121,-29,o),
(102,-81,o),
(44,-129,c),
(69,-163,l),
(145,-118,o),
(211,-43,o),
(211,53,cs)
);
}
);
width = 264;
}
);
unicode = 8218;
}
{
glyphname = quotedblleft;
layers = (
{
hints = (
{
place = (56,154);
type = Stem;
},
{
place = (258,154);
type = Stem;
}
);
layerId = "C6EC6FDA-E503-47EF-96B2-9587BA9C0735";
shapes = (
{
closed = 1;
nodes = (
(395,740,l),
(319,695,o),
(253,620,o),
(253,524,cs),
(253,464,o),
(285,428,o),
(333,428,cs),
(371,428,o),
(409,461,o),
(409,507,cs),
(409,562,o),
(361,577,o),
(339,584,c),
(343,606,o),
(362,658,o),
(420,706,c)
);
},
{
closed = 1;
nodes = (
(195,740,l),
(119,695,o),
(53,620,o),
(53,524,cs),
(53,464,o),
(85,428,o),
(133,428,cs),
(171,428,o),
(209,461,o),
(209,507,cs),
(209,562,o),
(161,577,o),
(139,584,c),
(143,606,o),
(162,658,o),
(220,706,c)
);
}
);
width = 464;
}
);
unicode = 8220;
}
{
glyphname = quotedblright;
layers = (
{
hints = (
{
place = (58,154);
type = Stem;
},
{
place = (260,154);
type = Stem;
}
);
layerId = "C6EC6FDA-E503-47EF-96B2-9587BA9C0735";
shapes = (
{
closed = 1;
nodes = (
(411,704,o),
(379,740,o),
(331,740,cs),
(293,740,o),
(255,707,o),
(255,661,cs),
(255,606,o),
(303,591,o),
(325,584,c),
(321,562,o),
(302,510,o),
(244,462,c),
(269,428,l),
(345,473,o),
(411,548,o),
(411,644,cs)
);
},
{
closed = 1;
nodes = (
(211,704,o),
(179,740,o),
(131,740,cs),
(93,740,o),
(55,707,o),
(55,661,cs),
(55,606,o),
(103,591,o),
(125,584,c),
(121,562,o),
(102,510,o),
(44,462,c),
(69,428,l),
(145,473,o),
(211,548,o),
(211,644,cs)
);
}
);
width = 464;
}
);
unicode = 8221;
}
{
glyphname = quotedblbase;
layers = (
{
hints = (
{
horizontal = 1;
place = (740,-20);
target = down;
type = TopGhost;
},
{
place = (61,137);
type = Stem;
},
{
place = (246,137);
type = Stem;
}
);
layerId = "C6EC6FDA-E503-47EF-96B2-9587BA9C0735";
shapes = (
{
closed = 1;
nodes = (
(411,113,o),
(379,149,o),
(331,149,cs),
(293,149,o),
(255,116,o),
(255,70,cs),
(255,15,o),
(303,0,o),
(325,-7,c),
(321,-29,o),
(302,-81,o),
(244,-129,c),
(269,-163,l),
(345,-118,o),
(411,-43,o),
(411,53,cs)
);
},
{
closed = 1;
nodes = (
(211,113,o),
(179,149,o),
(131,149,cs),
(93,149,o),
(55,116,o),
(55,70,cs),
(55,15,o),
(103,0,o),
(125,-7,c),
(121,-29,o),
(102,-81,o),
(44,-129,c),
(69,-163,l),
(145,-118,o),
(211,-43,o),
(211,53,cs)
);
}
);
width = 464;
}
);
unicode = 8222;
}
{
glyphname = bullet;
layers = (
{
layerId = "C6EC6FDA-E503-47EF-96B2-9587BA9C0735";
shapes = (
{
closed = 1;
nodes = (
(402,456,o),
(315,544,o),
(209,544,cs),
(102,544,o),
(15,456,o),
(15,350,cs),
(15,244,o),
(102,156,o),
(209,156,cs),
(315,156,o),
(402,244,o),
(402,350,cs)
);
}
);
width = 417;
}
);
unicode = 8226;
}
{
glyphname = ellipsis;
layers = (
{
hints = (
{
horizontal = 1;
place = (-10,159);
type = Stem;
},
{
place = (110,154);
type = Stem;
},
{
place = (460,154);
type = Stem;
},
{
place = (815,154);
type = Stem;
}
);
layerId = "C6EC6FDA-E503-47EF-96B2-9587BA9C0735";
shapes = (
{
closed = 1;
nodes = (
(821,113,o),
(785,149,o),
(742,149,cs),
(698,149,o),
(662,113,o),
(662,70,cs),
(662,26,o),
(698,-10,o),
(742,-10,cs),
(785,-10,o),
(821,26,o),
(821,70,cs)
);
},
{
closed = 1;
nodes = (
(524,113,o),
(488,149,o),
(445,149,cs),
(401,149,o),
(365,113,o),
(365,70,cs),
(365,26,o),
(401,-10,o),
(445,-10,cs),
(488,-10,o),
(524,26,o),
(524,70,cs)
);
},
{
closed = 1;
nodes = (
(227,113,o),
(191,149,o),
(148,149,cs),
(104,149,o),
(68,113,o),
(68,70,cs),
(68,26,o),
(104,-10,o),
(148,-10,cs),
(191,-10,o),
(227,26,o),
(227,70,cs)
);
}
);
width = 890;
}
);
unicode = 8230;
}
{
glyphname = Euro;
layers = (
{
hints = (
{
horizontal = 1;
place = (-10,80);
type = Stem;
},
{
horizontal = 1;
place = (252,56);
type = Stem;
},
{
horizontal = 1;
place = (375,56);
type = Stem;
},
{
horizontal = 1;
place = (623,71);
type = Stem;
},
{
place = (94,140);
type = Stem;
},
{
place = (401,140);
type = Stem;
}
);
layerId = "C6EC6FDA-E503-47EF-96B2-9587BA9C0735";
shapes = (
{
closed = 1;
nodes = (
(517,166,l),
(480,103,o),
(418,70,o),
(367,70,cs),
(283,70,o),
(239,121,o),
(228,252,c),
(387,252,l),
(387,303,l),
(226,303,l),
(226,310,o),
(226,317,o),
(226,325,cs),
(226,344,o),
(226,362,o),
(227,380,c),
(418,380,l),
(418,431,l),
(231,431,l),
(246,564,o),
(293,623,o),
(361,623,cs),
(372,623,o),
(393,623,o),
(407,617,c),
(399,598,o),
(395,590,o),
(395,574,cs),
(395,536,o),
(423,506,o),
(465,506,cs),
(509,506,o),
(538,535,o),
(538,582,cs),
(538,638,o),
(489,694,o),
(362,694,cs),
(239,694,o),
(131,601,o),
(100,431,c),
(25,431,l),
(25,380,l),
(93,380,l),
(92,360,o),
(91,340,o),
(91,318,cs),
(91,313,o),
(91,308,o),
(91,303,c),
(25,303,l),
(25,252,l),
(95,252,l),
(113,96,o),
(200,-10,o),
(343,-10,cs),
(431,-10,o),
(518,37,o),
(557,120,c)
);
}
);
width = 570;
}
);
unicode = 8364;
}
